<svg width="22" height="24" viewBox="0 0 22 24" fill="none" xmlns="http://www.w3.org/2000/svg">
<path d="M0 5.98956H22V19.5784C21.9967 22.0192 19.8264 23.997 17.1484 24H4.85193C2.1736 23.997 0.00326625 22.0192 0 19.5787V19.5784V5.98956ZM19.7059 8.08019H2.29409V19.5784C2.29602 20.8651 3.44006 21.9076 4.85175 21.9094H17.1481C18.56 21.9076 19.704 20.865 19.7059 19.5785V19.5784V8.08019ZM16.5287 10.0244H14.2346V5.03831C14.2346 3.41034 12.7864 2.09058 11 2.09058C9.2135 2.09058 7.76534 3.41034 7.76534 5.03831V10.0244H5.47136V5.03831C5.47136 2.25574 7.94663 0 11.0001 0C14.0535 0 16.5287 2.25574 16.5287 5.03835L16.5287 10.0244Z" fill="#3D4147"/>
</svg>
