<svg width="13" height="26" viewBox="0 0 13 26" fill="none" xmlns="http://www.w3.org/2000/svg">
<path d="M11.4347 0H13V6.81908H11.4786C10.1185 6.81908 9.01588 8.06779 9.01588 9.60817V9.61815V9.61764V10.1519H12.0003V15.8482H9.01588V26H2.9949V15.8482H0V10.1518H2.99488V9.62002V9.61982C2.99488 4.32887 6.76637 0.0355469 11.4307 7.61785e-05L11.4337 2.53767e-05L11.4347 0ZM11.9565 1.18181H11.4347C7.34752 1.22853 4.04878 4.98601 4.03837 9.61886V11.3336H1.04354V14.6663H4.03835V24.8181H7.97238V14.6663H10.9568V11.3336H7.97238V9.62002V9.60819C7.97238 7.41513 9.54212 5.63728 11.4786 5.63728H11.9585L11.9565 1.18181Z" fill="#C8A382"/>
</svg>
