<svg width="30" height="27" viewBox="0 0 30 27" fill="none" xmlns="http://www.w3.org/2000/svg">
<path d="M6.01735 2.54222e-05H23.6085C26.9303 0.00333213 29.6221 2.36992 29.6259 5.29007V20.7563C29.6221 23.6767 26.9303 26.0434 23.6089 26.0467H6.01738C2.69555 26.0434 0.00376109 23.6768 0 20.7566V5.29042C0.00376109 2.36992 2.69555 0.00330671 6.01697 0H6.01732L6.01735 2.54222e-05ZM23.6085 24.3102C25.8401 24.3083 27.6485 22.7183 27.6508 20.7565V5.29042C27.6485 3.32843 25.8401 1.73846 23.6087 1.73648H6.01735C3.78577 1.73846 1.97735 3.32843 1.97504 5.29022V20.7563C1.97735 22.7183 3.78577 24.3082 6.01714 24.3103H6.01735L23.6085 24.3102ZM14.8129 6.63325C18.8271 6.63325 22.0811 9.49421 22.0811 13.0233C22.0811 16.5524 18.8271 19.4135 14.8129 19.4135C10.7988 19.4135 7.54476 16.5525 7.54476 13.0234C7.54921 9.49582 10.8006 6.63722 14.8125 6.63328H14.8129V6.63325ZM14.8129 17.677C17.7363 17.677 20.1061 15.5935 20.1061 13.0234C20.1061 10.4532 17.7363 8.36968 14.8129 8.36968C11.8896 8.36968 9.51976 10.4532 9.51976 13.0234C9.52353 15.5922 11.8911 17.6737 14.8126 17.677H14.8129ZM24.8594 5.84605C24.8594 6.7603 24.0164 7.50144 22.9765 7.50144C21.9367 7.50144 21.0936 6.7603 21.0936 5.84605C21.0936 4.9318 21.9366 4.19066 22.9765 4.19066C24.0163 4.19066 24.8594 4.9318 24.8594 5.84605Z" fill="#C8A382"/>
</svg>
