<svg width="167" height="47" viewBox="0 0 167 47" fill="none" xmlns="http://www.w3.org/2000/svg">
<g filter="url(#filter0_d_100_597)">
<path d="M40.3855 19.7H37.1155V24.035H40.3855C41.0055 24.035 41.4205 23.885 41.6305 23.585C41.8405 23.285 41.9455 22.86 41.9455 22.31V21.26C41.9455 20.8 41.8155 20.425 41.5555 20.135C41.3055 19.845 40.9155 19.7 40.3855 19.7ZM37.1155 27.65H36.9655V19.55H40.3855C40.9655 19.55 41.3955 19.715 41.6755 20.045C41.9555 20.365 42.0955 20.77 42.0955 21.26V22.295C42.0955 22.755 42.0355 23.135 41.9155 23.435C41.7955 23.725 41.5555 23.925 41.1955 24.035H41.3605C41.9705 24.035 42.4255 24.175 42.7255 24.455C43.0255 24.725 43.1755 25.12 43.1755 25.64V27.65H43.0255V25.64C43.0255 25.15 42.8905 24.785 42.6205 24.545C42.3505 24.295 41.9305 24.17 41.3605 24.17H37.1155V27.65ZM48.008 24.455V24.92H53.858V24.455C53.858 24.185 53.833 23.935 53.783 23.705C53.743 23.475 53.688 23.26 53.618 23.06L52.583 20.615C52.473 20.355 52.358 20.14 52.238 19.97C52.118 19.79 51.918 19.7 51.638 19.7H50.168C49.868 19.7 49.658 19.79 49.538 19.97C49.418 20.14 49.308 20.35 49.208 20.6L48.248 23.06C48.178 23.26 48.118 23.475 48.068 23.705C48.028 23.935 48.008 24.185 48.008 24.455ZM53.858 27.65V25.07H48.008V27.65H47.858V24.455C47.858 24.175 47.878 23.92 47.918 23.69C47.968 23.45 48.033 23.22 48.113 23L49.073 20.54C49.183 20.26 49.308 20.025 49.448 19.835C49.588 19.645 49.828 19.55 50.168 19.55H51.638C51.968 19.55 52.198 19.645 52.328 19.835C52.468 20.025 52.598 20.265 52.718 20.555L53.753 23C53.833 23.22 53.893 23.45 53.933 23.69C53.983 23.92 54.008 24.175 54.008 24.455V27.65H53.858ZM63.33 27.65H58.56V27.5H60.885V19.7H58.56V19.55H63.33V19.7H61.035V27.5H63.33V27.65ZM68.5121 19.67L74.0321 25.88V19.55H74.1821V27.65H74.0321V26.105L68.3621 19.745C68.3521 19.735 68.3371 19.725 68.3171 19.715C68.3071 19.705 68.2971 19.7 68.2871 19.7C68.2771 19.7 68.2671 19.705 68.2571 19.715C68.2571 19.725 68.2571 19.735 68.2571 19.745V27.65H68.1071V19.715C68.1071 19.655 68.1271 19.61 68.1671 19.58C68.2071 19.55 68.2471 19.535 68.2871 19.535C68.3271 19.535 68.3621 19.545 68.3921 19.565C68.4221 19.585 68.4621 19.62 68.5121 19.67ZM82.266 25.085H82.161V27.65H82.011V25.085H81.861C81.641 25.085 81.441 25.035 81.261 24.935C81.091 24.835 80.926 24.675 80.766 24.455L79.311 22.43C79.201 22.28 79.136 22.105 79.116 21.905C79.096 21.705 79.086 21.495 79.086 21.275V19.55H79.236V21.275C79.236 21.485 79.246 21.685 79.266 21.875C79.286 22.055 79.346 22.22 79.446 22.37L80.901 24.395C81.031 24.595 81.181 24.735 81.351 24.815C81.521 24.895 81.691 24.935 81.861 24.935H82.266C82.456 24.935 82.626 24.895 82.776 24.815C82.936 24.725 83.091 24.585 83.241 24.395L84.741 22.37C84.841 22.24 84.901 22.08 84.921 21.89C84.941 21.69 84.951 21.485 84.951 21.275V19.55H85.101V21.275C85.101 21.495 85.091 21.705 85.071 21.905C85.061 22.095 84.996 22.27 84.876 22.43L83.376 24.455C83.216 24.675 83.046 24.835 82.866 24.935C82.696 25.035 82.496 25.085 82.266 25.085ZM93.2598 27.65V19.55H96.8898C97.3998 19.55 97.8098 19.605 98.1198 19.715C98.4398 19.825 98.6848 19.975 98.8548 20.165C99.0248 20.345 99.1398 20.565 99.1998 20.825C99.2598 21.075 99.2898 21.345 99.2898 21.635V25.61C99.2898 25.9 99.2598 26.17 99.1998 26.42C99.1498 26.67 99.0398 26.885 98.8698 27.065C98.6998 27.245 98.4548 27.39 98.1348 27.5C97.8148 27.6 97.3998 27.65 96.8898 27.65H93.2598ZM96.8898 19.7H93.4098V27.5H96.8898C97.3698 27.5 97.7548 27.455 98.0448 27.365C98.3448 27.265 98.5748 27.135 98.7348 26.975C98.8948 26.805 98.9998 26.605 99.0498 26.375C99.1098 26.135 99.1398 25.88 99.1398 25.61V21.635C99.1398 21.365 99.1098 21.11 99.0498 20.87C98.9898 20.63 98.8798 20.425 98.7198 20.255C98.5598 20.085 98.3298 19.95 98.0298 19.85C97.7398 19.75 97.3598 19.7 96.8898 19.7ZM104.331 24.455V24.92H110.181V24.455C110.181 24.185 110.156 23.935 110.106 23.705C110.066 23.475 110.011 23.26 109.941 23.06L108.906 20.615C108.796 20.355 108.681 20.14 108.561 19.97C108.441 19.79 108.241 19.7 107.961 19.7H106.491C106.191 19.7 105.981 19.79 105.861 19.97C105.741 20.14 105.631 20.35 105.531 20.6L104.571 23.06C104.501 23.26 104.441 23.475 104.391 23.705C104.351 23.935 104.331 24.185 104.331 24.455ZM110.181 27.65V25.07H104.331V27.65H104.181V24.455C104.181 24.175 104.201 23.92 104.241 23.69C104.291 23.45 104.356 23.22 104.436 23L105.396 20.54C105.506 20.26 105.631 20.025 105.771 19.835C105.911 19.645 106.151 19.55 106.491 19.55H107.961C108.291 19.55 108.521 19.645 108.651 19.835C108.791 20.025 108.921 20.265 109.041 20.555L110.076 23C110.156 23.22 110.216 23.45 110.256 23.69C110.306 23.92 110.331 24.175 110.331 24.455V27.65H110.181ZM117.832 25.085H117.727V27.65H117.577V25.085H117.427C117.207 25.085 117.007 25.035 116.827 24.935C116.657 24.835 116.492 24.675 116.332 24.455L114.877 22.43C114.767 22.28 114.702 22.105 114.682 21.905C114.662 21.705 114.652 21.495 114.652 21.275V19.55H114.802V21.275C114.802 21.485 114.812 21.685 114.832 21.875C114.852 22.055 114.912 22.22 115.012 22.37L116.467 24.395C116.597 24.595 116.747 24.735 116.917 24.815C117.087 24.895 117.257 24.935 117.427 24.935H117.832C118.022 24.935 118.192 24.895 118.342 24.815C118.502 24.725 118.657 24.585 118.807 24.395L120.307 22.37C120.407 22.24 120.467 22.08 120.487 21.89C120.507 21.69 120.517 21.485 120.517 21.275V19.55H120.667V21.275C120.667 21.495 120.657 21.705 120.637 21.905C120.627 22.095 120.562 22.27 120.442 22.43L118.942 24.455C118.782 24.675 118.612 24.835 118.432 24.935C118.262 25.035 118.062 25.085 117.832 25.085ZM130.194 19.55V19.7H126.864C126.444 19.7 126.109 19.815 125.859 20.045C125.609 20.275 125.484 20.565 125.484 20.915V22.145C125.484 22.495 125.554 22.74 125.694 22.88C125.834 23.02 126.019 23.11 126.249 23.15L129.414 23.795C129.714 23.855 129.959 23.985 130.149 24.185C130.349 24.385 130.449 24.745 130.449 25.265V26.135C130.449 26.575 130.299 26.94 129.999 27.23C129.699 27.51 129.294 27.65 128.784 27.65H125.049V27.5H128.784C129.244 27.5 129.609 27.375 129.879 27.125C130.159 26.865 130.299 26.535 130.299 26.135V25.265C130.299 24.795 130.214 24.475 130.044 24.305C129.884 24.125 129.664 24.005 129.384 23.945L126.219 23.3C125.959 23.25 125.744 23.15 125.574 23C125.414 22.84 125.334 22.555 125.334 22.145V20.915C125.334 20.515 125.474 20.19 125.754 19.94C126.034 19.68 126.404 19.55 126.864 19.55H130.194Z" fill="#AEAEB4"/>
<path d="M37.1155 19.7V18.7H36.1155V19.7H37.1155ZM37.1155 24.035H36.1155V25.035H37.1155V24.035ZM41.6305 23.585L42.4498 24.1585L42.4498 24.1585L41.6305 23.585ZM41.5555 20.135L40.7981 20.7879L40.8045 20.7953L40.811 20.8025L41.5555 20.135ZM37.1155 27.65V28.65H38.1155V27.65H37.1155ZM36.9655 27.65H35.9655V28.65H36.9655V27.65ZM36.9655 19.55V18.55H35.9655V19.55H36.9655ZM41.6755 20.045L40.913 20.692L40.918 20.6978L40.923 20.7035L41.6755 20.045ZM41.9155 23.435L42.8396 23.8174L42.844 23.8064L41.9155 23.435ZM41.1955 24.035L40.9033 23.0786L41.1955 25.035V24.035ZM42.7255 24.455L42.0432 25.1861L42.0499 25.1922L42.0566 25.1983L42.7255 24.455ZM43.1755 27.65V28.65H44.1755V27.65H43.1755ZM43.0255 27.65H42.0255V28.65H43.0255V27.65ZM42.6205 24.545L41.9411 25.2788L41.9486 25.2857L41.9562 25.2924L42.6205 24.545ZM37.1155 24.17V23.17H36.1155V24.17H37.1155ZM40.3855 18.7H37.1155V20.7H40.3855V18.7ZM36.1155 19.7V24.035H38.1155V19.7H36.1155ZM37.1155 25.035H40.3855V23.035H37.1155V25.035ZM40.3855 25.035C41.1066 25.035 41.9528 24.8684 42.4498 24.1585L40.8113 23.0115C40.847 22.9606 40.8761 22.9624 40.8219 22.982C40.7578 23.0052 40.6229 23.035 40.3855 23.035V25.035ZM42.4498 24.1585C42.823 23.6253 42.9455 22.9681 42.9455 22.31H40.9455C40.9455 22.7519 40.8581 22.9447 40.8113 23.0115L42.4498 24.1585ZM42.9455 22.31V21.26H40.9455V22.31H42.9455ZM42.9455 21.26C42.9455 20.6008 42.7536 19.9732 42.3001 19.4675L40.811 20.8025C40.8775 20.8768 40.9455 20.9992 40.9455 21.26H42.9455ZM42.313 19.4821C41.8081 18.8965 41.0898 18.7 40.3855 18.7V20.7C40.5627 20.7 40.6694 20.7246 40.7271 20.7461C40.778 20.765 40.7927 20.7816 40.7981 20.7879L42.313 19.4821ZM37.1155 26.65H36.9655V28.65H37.1155V26.65ZM37.9655 27.65V19.55H35.9655V27.65H37.9655ZM36.9655 20.55H40.3855V18.55H36.9655V20.55ZM40.3855 20.55C40.7777 20.55 40.8822 20.6557 40.913 20.692L42.4381 19.398C41.9089 18.7743 41.1534 18.55 40.3855 18.55V20.55ZM40.923 20.7035C41.0194 20.8137 41.0955 20.973 41.0955 21.26H43.0955C43.0955 20.567 42.8917 19.9163 42.4281 19.3865L40.923 20.7035ZM41.0955 21.26V22.295H43.0955V21.26H41.0955ZM41.0955 22.295C41.0955 22.6775 41.0443 22.9204 40.9871 23.0636L42.844 23.8064C43.0268 23.3496 43.0955 22.8325 43.0955 22.295H41.0955ZM40.9915 23.0526C40.9913 23.0532 40.993 23.0493 40.9972 23.0435C40.9991 23.0409 41.001 23.0387 41.0027 23.0369C41.0044 23.0351 41.0054 23.0343 41.0054 23.0343C41.0053 23.0343 41.0039 23.0355 41.0006 23.0377C40.9973 23.0399 40.9919 23.0431 40.984 23.0472C40.9681 23.0554 40.9423 23.0668 40.9033 23.0786L41.4878 24.9914C42.0705 24.8133 42.5823 24.4391 42.8396 23.8174L40.9915 23.0526ZM41.1955 25.035H41.3605V23.035H41.1955V25.035ZM41.3605 25.035C41.8382 25.035 42.0011 25.1467 42.0432 25.1861L43.4079 23.7239C42.85 23.2033 42.1029 23.035 41.3605 23.035V25.035ZM42.0566 25.1983C42.0889 25.2274 42.1755 25.3165 42.1755 25.64H44.1755C44.1755 24.9235 43.9622 24.2226 43.3945 23.7117L42.0566 25.1983ZM42.1755 25.64V27.65H44.1755V25.64H42.1755ZM43.1755 26.65H43.0255V28.65H43.1755V26.65ZM44.0255 27.65V25.64H42.0255V27.65H44.0255ZM44.0255 25.64C44.0255 24.9709 43.8368 24.2882 43.2849 23.7976L41.9562 25.2924C41.9591 25.295 41.9713 25.3049 41.9864 25.3456C42.0037 25.3925 42.0255 25.484 42.0255 25.64H44.0255ZM43.3 23.8112C42.7662 23.317 42.0491 23.17 41.3605 23.17V25.17C41.812 25.17 41.9349 25.273 41.9411 25.2788L43.3 23.8112ZM41.3605 23.17H37.1155V25.17H41.3605V23.17ZM36.1155 24.17V27.65H38.1155V24.17H36.1155ZM48.008 24.92H47.008V25.92H48.008V24.92ZM53.858 24.92V25.92H54.858V24.92H53.858ZM53.783 23.705L52.7978 23.8763L52.8014 23.897L52.8058 23.9174L53.783 23.705ZM53.618 23.06L54.5619 22.7297L54.5513 22.6995L54.5389 22.6702L53.618 23.06ZM52.583 20.615L51.662 21.0046L51.6621 21.0048L52.583 20.615ZM52.238 19.97L51.406 20.5247L51.4134 20.5358L51.421 20.5467L52.238 19.97ZM49.538 19.97L50.355 20.5467L50.3627 20.5358L50.3701 20.5247L49.538 19.97ZM49.208 20.6L48.2795 20.2286L48.2764 20.2365L49.208 20.6ZM48.248 23.06L47.3164 22.6965L47.31 22.7129L47.3041 22.7296L48.248 23.06ZM48.068 23.705L47.0908 23.4926L47.0864 23.513L47.0828 23.5337L48.068 23.705ZM53.858 27.65H52.858V28.65H53.858V27.65ZM53.858 25.07H54.858V24.07H53.858V25.07ZM48.008 25.07V24.07H47.008V25.07H48.008ZM48.008 27.65V28.65H49.008V27.65H48.008ZM47.858 27.65H46.858V28.65H47.858V27.65ZM47.918 23.69L46.939 23.486L46.9356 23.5023L46.9328 23.5187L47.918 23.69ZM48.113 23L47.1814 22.6365L47.1772 22.6473L47.1732 22.6583L48.113 23ZM49.073 20.54L48.1423 20.1743L48.1414 20.1765L49.073 20.54ZM49.448 19.835L50.2531 20.4282L50.2531 20.4282L49.448 19.835ZM52.328 19.835L51.5027 20.3997L51.5126 20.4141L51.523 20.4282L52.328 19.835ZM52.718 20.555L51.794 20.9374L51.7971 20.9448L52.718 20.555ZM53.753 23L54.6928 22.6583L54.684 22.634L54.6739 22.6102L53.753 23ZM53.933 23.69L52.9466 23.8544L52.9506 23.8785L52.9558 23.9024L53.933 23.69ZM54.008 27.65V28.65H55.008V27.65H54.008ZM47.008 24.455V24.92H49.008V24.455H47.008ZM48.008 25.92H53.858V23.92H48.008V25.92ZM54.858 24.92V24.455H52.858V24.92H54.858ZM54.858 24.455C54.858 24.1238 54.8274 23.8017 54.7602 23.4926L52.8058 23.9174C52.8386 24.0683 52.858 24.2462 52.858 24.455H54.858ZM54.7682 23.5337C54.7198 23.255 54.6517 22.9863 54.5619 22.7297L52.6741 23.3903C52.7243 23.5337 52.7663 23.695 52.7978 23.8763L54.7682 23.5337ZM54.5389 22.6702L53.5039 20.2252L51.6621 21.0048L52.6971 23.4498L54.5389 22.6702ZM53.504 20.2254C53.3753 19.9211 53.2279 19.6383 53.055 19.3933L51.421 20.5467C51.4881 20.6417 51.5708 20.7889 51.662 21.0046L53.504 20.2254ZM53.0701 19.4153C52.7108 18.8764 52.1422 18.7 51.638 18.7V20.7C51.6743 20.7 51.6471 20.7062 51.5876 20.6794C51.5188 20.6484 51.4517 20.5933 51.406 20.5247L53.0701 19.4153ZM51.638 18.7H50.168V20.7H51.638V18.7ZM50.168 18.7C49.6749 18.7 49.078 18.8572 48.706 19.4153L50.3701 20.5247C50.3459 20.561 50.3148 20.5958 50.2781 20.6258C50.2418 20.6556 50.207 20.6748 50.1794 20.6866C50.1276 20.7089 50.1131 20.7 50.168 20.7V18.7ZM48.721 19.3933C48.5451 19.6426 48.4006 19.926 48.2795 20.2286L50.1365 20.9714C50.2155 20.774 50.291 20.6374 50.355 20.5467L48.721 19.3933ZM48.2764 20.2365L47.3164 22.6965L49.1796 23.4235L50.1396 20.9635L48.2764 20.2365ZM47.3041 22.7296C47.2193 22.9722 47.1486 23.2269 47.0908 23.4926L49.0452 23.9174C49.0874 23.7231 49.1368 23.5478 49.1919 23.3903L47.3041 22.7296ZM47.0828 23.5337C47.0316 23.8282 47.008 24.1363 47.008 24.455H49.008C49.008 24.2337 49.0244 24.0418 49.0532 23.8763L47.0828 23.5337ZM54.858 27.65V25.07H52.858V27.65H54.858ZM53.858 24.07H48.008V26.07H53.858V24.07ZM47.008 25.07V27.65H49.008V25.07H47.008ZM48.008 26.65H47.858V28.65H48.008V26.65ZM48.858 27.65V24.455H46.858V27.65H48.858ZM48.858 24.455C48.858 24.2215 48.8748 24.0249 48.9032 23.8613L46.9328 23.5187C46.8812 23.8151 46.858 24.1285 46.858 24.455H48.858ZM48.897 23.894C48.9377 23.6986 48.9899 23.5148 49.0528 23.3417L47.1732 22.6583C47.0761 22.9252 46.9983 23.2014 46.939 23.486L48.897 23.894ZM49.0446 23.3635L50.0046 20.9035L48.1414 20.1765L47.1814 22.6365L49.0446 23.3635ZM50.0038 20.9057C50.0902 20.6856 50.1765 20.532 50.2531 20.4282L48.643 19.2418C48.4395 19.518 48.2758 19.8344 48.1423 20.1743L50.0038 20.9057ZM50.2531 20.4282C50.2298 20.4598 50.2018 20.4878 50.1718 20.5103C50.1422 20.5325 50.1167 20.5449 50.1011 20.5511C50.0732 20.5621 50.0862 20.55 50.168 20.55V18.55C49.6582 18.55 49.0447 18.6966 48.643 19.2418L50.2531 20.4282ZM50.168 20.55H51.638V18.55H50.168V20.55ZM51.638 20.55C51.7125 20.55 51.7148 20.5614 51.6762 20.5455C51.6551 20.5368 51.6246 20.5209 51.5911 20.4944C51.557 20.4674 51.5268 20.4349 51.5027 20.3997L53.1533 19.2703C52.7644 18.7019 52.1446 18.55 51.638 18.55V20.55ZM51.523 20.4282C51.6021 20.5357 51.6955 20.6993 51.794 20.9374L53.642 20.1726C53.5005 19.8307 53.3339 19.5143 53.1331 19.2418L51.523 20.4282ZM51.7971 20.9448L52.8321 23.3898L54.6739 22.6102L53.6389 20.1652L51.7971 20.9448ZM52.8132 23.3417C52.8715 23.502 52.9163 23.6724 52.9466 23.8544L54.9194 23.5256C54.8697 23.2276 54.7945 22.938 54.6928 22.6583L52.8132 23.3417ZM52.9558 23.9024C52.9881 24.051 53.008 24.2334 53.008 24.455H55.008C55.008 24.1166 54.9779 23.789 54.9102 23.4776L52.9558 23.9024ZM53.008 24.455V27.65H55.008V24.455H53.008ZM54.008 26.65H53.858V28.65H54.008V26.65ZM63.33 27.65V28.65H64.33V27.65H63.33ZM58.56 27.65H57.56V28.65H58.56V27.65ZM58.56 27.5V26.5H57.56V27.5H58.56ZM60.885 27.5V28.5H61.885V27.5H60.885ZM60.885 19.7H61.885V18.7H60.885V19.7ZM58.56 19.7H57.56V20.7H58.56V19.7ZM58.56 19.55V18.55H57.56V19.55H58.56ZM63.33 19.55H64.33V18.55H63.33V19.55ZM63.33 19.7V20.7H64.33V19.7H63.33ZM61.035 19.7V18.7H60.035V19.7H61.035ZM61.035 27.5H60.035V28.5H61.035V27.5ZM63.33 27.5H64.33V26.5H63.33V27.5ZM63.33 26.65H58.56V28.65H63.33V26.65ZM59.56 27.65V27.5H57.56V27.65H59.56ZM58.56 28.5H60.885V26.5H58.56V28.5ZM61.885 27.5V19.7H59.885V27.5H61.885ZM60.885 18.7H58.56V20.7H60.885V18.7ZM59.56 19.7V19.55H57.56V19.7H59.56ZM58.56 20.55H63.33V18.55H58.56V20.55ZM62.33 19.55V19.7H64.33V19.55H62.33ZM63.33 18.7H61.035V20.7H63.33V18.7ZM60.035 19.7V27.5H62.035V19.7H60.035ZM61.035 28.5H63.33V26.5H61.035V28.5ZM62.33 27.5V27.65H64.33V27.5H62.33ZM68.5121 19.67L69.2595 19.0056L69.24 18.9837L69.2192 18.9629L68.5121 19.67ZM74.0321 25.88L73.2847 26.5444L75.0321 28.5102V25.88H74.0321ZM74.0321 19.55V18.55H73.0321V19.55H74.0321ZM74.1821 19.55H75.1821V18.55H74.1821V19.55ZM74.1821 27.65V28.65H75.1821V27.65H74.1821ZM74.0321 27.65H73.0321V28.65H74.0321V27.65ZM74.0321 26.105H75.0321V25.724L74.7785 25.4395L74.0321 26.105ZM68.3621 19.745L69.1085 19.0795L69.0894 19.0582L69.0692 19.0379L68.3621 19.745ZM68.3171 19.715L67.61 20.4221L67.7247 20.5369L67.8699 20.6094L68.3171 19.715ZM68.2571 19.715L67.55 19.0079L67.2571 19.3008V19.715H68.2571ZM68.2571 27.65V28.65H69.2571V27.65H68.2571ZM68.1071 27.65H67.1071V28.65H68.1071V27.65ZM68.1671 19.58L67.5671 18.78L67.5671 18.78L68.1671 19.58ZM68.3921 19.565L67.8374 20.397L67.8374 20.3971L68.3921 19.565ZM67.7647 20.3344L73.2847 26.5444L74.7795 25.2156L69.2595 19.0056L67.7647 20.3344ZM75.0321 25.88V19.55H73.0321V25.88H75.0321ZM74.0321 20.55H74.1821V18.55H74.0321V20.55ZM73.1821 19.55V27.65H75.1821V19.55H73.1821ZM74.1821 26.65H74.0321V28.65H74.1821V26.65ZM75.0321 27.65V26.105H73.0321V27.65H75.0321ZM74.7785 25.4395L69.1085 19.0795L67.6156 20.4105L73.2856 26.7705L74.7785 25.4395ZM69.0692 19.0379C68.9522 18.9209 68.8313 18.8541 68.7643 18.8206L67.8699 20.6094C67.8512 20.6001 67.8227 20.5847 67.7886 20.5621C67.7555 20.54 67.7072 20.5043 67.655 20.4521L69.0692 19.0379ZM69.0242 19.0079C68.9052 18.8889 68.6558 18.7 68.2871 18.7V20.7C67.9383 20.7 67.709 20.5211 67.61 20.4221L69.0242 19.0079ZM68.2871 18.7C67.9183 18.7 67.669 18.8889 67.55 19.0079L68.9642 20.4221C68.8652 20.5211 68.6358 20.7 68.2871 20.7V18.7ZM67.2571 19.715C67.2571 19.715 67.2571 19.715 67.2571 19.7151C67.2571 19.7151 67.2571 19.7151 67.2571 19.7151C67.2571 19.7151 67.2571 19.7152 67.2571 19.7152C67.2571 19.7152 67.2571 19.7152 67.2571 19.7152C67.2571 19.7153 67.2571 19.7153 67.2571 19.7153C67.2571 19.7153 67.2571 19.7153 67.2571 19.7154C67.2571 19.7154 67.2571 19.7154 67.2571 19.7154C67.2571 19.7154 67.2571 19.7154 67.2571 19.7155C67.2571 19.7155 67.2571 19.7155 67.2571 19.7155C67.2571 19.7155 67.2571 19.7156 67.2571 19.7156C67.2571 19.7156 67.2571 19.7156 67.2571 19.7156C67.2571 19.7157 67.2571 19.7157 67.2571 19.7157C67.2571 19.7157 67.2571 19.7157 67.2571 19.7158C67.2571 19.7158 67.2571 19.7158 67.2571 19.7158C67.2571 19.7158 67.2571 19.7159 67.2571 19.7159C67.2571 19.7159 67.2571 19.7159 67.2571 19.7159C67.2571 19.716 67.2571 19.716 67.2571 19.716C67.2571 19.716 67.2571 19.716 67.2571 19.7161C67.2571 19.7161 67.2571 19.7161 67.2571 19.7161C67.2571 19.7161 67.2571 19.7162 67.2571 19.7162C67.2571 19.7162 67.2571 19.7162 67.2571 19.7162C67.2571 19.7162 67.2571 19.7163 67.2571 19.7163C67.2571 19.7163 67.2571 19.7163 67.2571 19.7163C67.2571 19.7164 67.2571 19.7164 67.2571 19.7164C67.2571 19.7164 67.2571 19.7164 67.2571 19.7165C67.2571 19.7165 67.2571 19.7165 67.2571 19.7165C67.2571 19.7165 67.2571 19.7166 67.2571 19.7166C67.2571 19.7166 67.2571 19.7166 67.2571 19.7166C67.2571 19.7167 67.2571 19.7167 67.2571 19.7167C67.2571 19.7167 67.2571 19.7167 67.2571 19.7168C67.2571 19.7168 67.2571 19.7168 67.2571 19.7168C67.2571 19.7168 67.2571 19.7169 67.2571 19.7169C67.2571 19.7169 67.2571 19.7169 67.2571 19.7169C67.2571 19.717 67.2571 19.717 67.2571 19.717C67.2571 19.717 67.2571 19.717 67.2571 19.7171C67.2571 19.7171 67.2571 19.7171 67.2571 19.7171C67.2571 19.7171 67.2571 19.7171 67.2571 19.7172C67.2571 19.7172 67.2571 19.7172 67.2571 19.7172C67.2571 19.7172 67.2571 19.7173 67.2571 19.7173C67.2571 19.7173 67.2571 19.7173 67.2571 19.7173C67.2571 19.7174 67.2571 19.7174 67.2571 19.7174C67.2571 19.7174 67.2571 19.7174 67.2571 19.7175C67.2571 19.7175 67.2571 19.7175 67.2571 19.7175C67.2571 19.7175 67.2571 19.7176 67.2571 19.7176C67.2571 19.7176 67.2571 19.7176 67.2571 19.7176C67.2571 19.7177 67.2571 19.7177 67.2571 19.7177C67.2571 19.7177 67.2571 19.7177 67.2571 19.7178C67.2571 19.7178 67.2571 19.7178 67.2571 19.7178C67.2571 19.7178 67.2571 19.7179 67.2571 19.7179C67.2571 19.7179 67.2571 19.7179 67.2571 19.7179C67.2571 19.7179 67.2571 19.718 67.2571 19.718C67.2571 19.718 67.2571 19.718 67.2571 19.718C67.2571 19.7181 67.2571 19.7181 67.2571 19.7181C67.2571 19.7181 67.2571 19.7181 67.2571 19.7182C67.2571 19.7182 67.2571 19.7182 67.2571 19.7182C67.2571 19.7182 67.2571 19.7183 67.2571 19.7183C67.2571 19.7183 67.2571 19.7183 67.2571 19.7183C67.2571 19.7184 67.2571 19.7184 67.2571 19.7184C67.2571 19.7184 67.2571 19.7184 67.2571 19.7185C67.2571 19.7185 67.2571 19.7185 67.2571 19.7185C67.2571 19.7185 67.2571 19.7186 67.2571 19.7186C67.2571 19.7186 67.2571 19.7186 67.2571 19.7186C67.2571 19.7187 67.2571 19.7187 67.2571 19.7187C67.2571 19.7187 67.2571 19.7187 67.2571 19.7187C67.2571 19.7188 67.2571 19.7188 67.2571 19.7188C67.2571 19.7188 67.2571 19.7188 67.2571 19.7189C67.2571 19.7189 67.2571 19.7189 67.2571 19.7189C67.2571 19.7189 67.2571 19.719 67.2571 19.719C67.2571 19.719 67.2571 19.719 67.2571 19.719C67.2571 19.7191 67.2571 19.7191 67.2571 19.7191C67.2571 19.7191 67.2571 19.7191 67.2571 19.7192C67.2571 19.7192 67.2571 19.7192 67.2571 19.7192C67.2571 19.7192 67.2571 19.7193 67.2571 19.7193C67.2571 19.7193 67.2571 19.7193 67.2571 19.7193C67.2571 19.7194 67.2571 19.7194 67.2571 19.7194C67.2571 19.7194 67.2571 19.7194 67.2571 19.7195C67.2571 19.7195 67.2571 19.7195 67.2571 19.7195C67.2571 19.7195 67.2571 19.7196 67.2571 19.7196C67.2571 19.7196 67.2571 19.7196 67.2571 19.7196C67.2571 19.7196 67.2571 19.7197 67.2571 19.7197C67.2571 19.7197 67.2571 19.7197 67.2571 19.7197C67.2571 19.7198 67.2571 19.7198 67.2571 19.7198C67.2571 19.7198 67.2571 19.7198 67.2571 19.7199C67.2571 19.7199 67.2571 19.7199 67.2571 19.7199C67.2571 19.7199 67.2571 19.72 67.2571 19.72C67.2571 19.72 67.2571 19.72 67.2571 19.72C67.2571 19.7201 67.2571 19.7201 67.2571 19.7201C67.2571 19.7201 67.2571 19.7201 67.2571 19.7202C67.2571 19.7202 67.2571 19.7202 67.2571 19.7202C67.2571 19.7202 67.2571 19.7203 67.2571 19.7203C67.2571 19.7203 67.2571 19.7203 67.2571 19.7203C67.2571 19.7204 67.2571 19.7204 67.2571 19.7204C67.2571 19.7204 67.2571 19.7204 67.2571 19.7204C67.2571 19.7205 67.2571 19.7205 67.2571 19.7205C67.2571 19.7205 67.2571 19.7205 67.2571 19.7206C67.2571 19.7206 67.2571 19.7206 67.2571 19.7206C67.2571 19.7206 67.2571 19.7207 67.2571 19.7207C67.2571 19.7207 67.2571 19.7207 67.2571 19.7207C67.2571 19.7208 67.2571 19.7208 67.2571 19.7208C67.2571 19.7208 67.2571 19.7208 67.2571 19.7209C67.2571 19.7209 67.2571 19.7209 67.2571 19.7209C67.2571 19.7209 67.2571 19.721 67.2571 19.721C67.2571 19.721 67.2571 19.721 67.2571 19.721C67.2571 19.7211 67.2571 19.7211 67.2571 19.7211C67.2571 19.7211 67.2571 19.7211 67.2571 19.7212C67.2571 19.7212 67.2571 19.7212 67.2571 19.7212C67.2571 19.7212 67.2571 19.7212 67.2571 19.7213C67.2571 19.7213 67.2571 19.7213 67.2571 19.7213C67.2571 19.7213 67.2571 19.7214 67.2571 19.7214C67.2571 19.7214 67.2571 19.7214 67.2571 19.7214C67.2571 19.7215 67.2571 19.7215 67.2571 19.7215C67.2571 19.7215 67.2571 19.7215 67.2571 19.7216C67.2571 19.7216 67.2571 19.7216 67.2571 19.7216C67.2571 19.7216 67.2571 19.7217 67.2571 19.7217C67.2571 19.7217 67.2571 19.7217 67.2571 19.7217C67.2571 19.7218 67.2571 19.7218 67.2571 19.7218C67.2571 19.7218 67.2571 19.7218 67.2571 19.7219C67.2571 19.7219 67.2571 19.7219 67.2571 19.7219C67.2571 19.7219 67.2571 19.722 67.2571 19.722C67.2571 19.722 67.2571 19.722 67.2571 19.722C67.2571 19.7221 67.2571 19.7221 67.2571 19.7221C67.2571 19.7221 67.2571 19.7221 67.2571 19.7221C67.2571 19.7222 67.2571 19.7222 67.2571 19.7222C67.2571 19.7222 67.2571 19.7222 67.2571 19.7223C67.2571 19.7223 67.2571 19.7223 67.2571 19.7223C67.2571 19.7223 67.2571 19.7224 67.2571 19.7224C67.2571 19.7224 67.2571 19.7224 67.2571 19.7224C67.2571 19.7225 67.2571 19.7225 67.2571 19.7225C67.2571 19.7225 67.2571 19.7225 67.2571 19.7226C67.2571 19.7226 67.2571 19.7226 67.2571 19.7226C67.2571 19.7226 67.2571 19.7227 67.2571 19.7227C67.2571 19.7227 67.2571 19.7227 67.2571 19.7227C67.2571 19.7228 67.2571 19.7228 67.2571 19.7228C67.2571 19.7228 67.2571 19.7228 67.2571 19.7229C67.2571 19.7229 67.2571 19.7229 67.2571 19.7229C67.2571 19.7229 67.2571 19.7229 67.2571 19.723C67.2571 19.723 67.2571 19.723 67.2571 19.723C67.2571 19.723 67.2571 19.7231 67.2571 19.7231C67.2571 19.7231 67.2571 19.7231 67.2571 19.7231C67.2571 19.7232 67.2571 19.7232 67.2571 19.7232C67.2571 19.7232 67.2571 19.7232 67.2571 19.7233C67.2571 19.7233 67.2571 19.7233 67.2571 19.7233C67.2571 19.7233 67.2571 19.7234 67.2571 19.7234C67.2571 19.7234 67.2571 19.7234 67.2571 19.7234C67.2571 19.7235 67.2571 19.7235 67.2571 19.7235C67.2571 19.7235 67.2571 19.7235 67.2571 19.7236C67.2571 19.7236 67.2571 19.7236 67.2571 19.7236C67.2571 19.7236 67.2571 19.7237 67.2571 19.7237C67.2571 19.7237 67.2571 19.7237 67.2571 19.7237C67.2571 19.7237 67.2571 19.7238 67.2571 19.7238C67.2571 19.7238 67.2571 19.7238 67.2571 19.7238C67.2571 19.7239 67.2571 19.7239 67.2571 19.7239C67.2571 19.7239 67.2571 19.7239 67.2571 19.724C67.2571 19.724 67.2571 19.724 67.2571 19.724C67.2571 19.724 67.2571 19.7241 67.2571 19.7241C67.2571 19.7241 67.2571 19.7241 67.2571 19.7241C67.2571 19.7242 67.2571 19.7242 67.2571 19.7242C67.2571 19.7242 67.2571 19.7242 67.2571 19.7243C67.2571 19.7243 67.2571 19.7243 67.2571 19.7243C67.2571 19.7243 67.2571 19.7244 67.2571 19.7244C67.2571 19.7244 67.2571 19.7244 67.2571 19.7244C67.2571 19.7245 67.2571 19.7245 67.2571 19.7245C67.2571 19.7245 67.2571 19.7245 67.2571 19.7246C67.2571 19.7246 67.2571 19.7246 67.2571 19.7246C67.2571 19.7246 67.2571 19.7246 67.2571 19.7247C67.2571 19.7247 67.2571 19.7247 67.2571 19.7247C67.2571 19.7247 67.2571 19.7248 67.2571 19.7248C67.2571 19.7248 67.2571 19.7248 67.2571 19.7248C67.2571 19.7249 67.2571 19.7249 67.2571 19.7249C67.2571 19.7249 67.2571 19.7249 67.2571 19.725C67.2571 19.725 67.2571 19.725 67.2571 19.725C67.2571 19.725 67.2571 19.7251 67.2571 19.7251C67.2571 19.7251 67.2571 19.7251 67.2571 19.7251C67.2571 19.7252 67.2571 19.7252 67.2571 19.7252C67.2571 19.7252 67.2571 19.7252 67.2571 19.7253C67.2571 19.7253 67.2571 19.7253 67.2571 19.7253C67.2571 19.7253 67.2571 19.7254 67.2571 19.7254C67.2571 19.7254 67.2571 19.7254 67.2571 19.7254C67.2571 19.7254 67.2571 19.7255 67.2571 19.7255C67.2571 19.7255 67.2571 19.7255 67.2571 19.7255C67.2571 19.7256 67.2571 19.7256 67.2571 19.7256C67.2571 19.7256 67.2571 19.7256 67.2571 19.7257C67.2571 19.7257 67.2571 19.7257 67.2571 19.7257C67.2571 19.7257 67.2571 19.7258 67.2571 19.7258C67.2571 19.7258 67.2571 19.7258 67.2571 19.7258C67.2571 19.7259 67.2571 19.7259 67.2571 19.7259C67.2571 19.7259 67.2571 19.7259 67.2571 19.726C67.2571 19.726 67.2571 19.726 67.2571 19.726C67.2571 19.726 67.2571 19.7261 67.2571 19.7261C67.2571 19.7261 67.2571 19.7261 67.2571 19.7261C67.2571 19.7262 67.2571 19.7262 67.2571 19.7262C67.2571 19.7262 67.2571 19.7262 67.2571 19.7262C67.2571 19.7263 67.2571 19.7263 67.2571 19.7263C67.2571 19.7263 67.2571 19.7263 67.2571 19.7264C67.2571 19.7264 67.2571 19.7264 67.2571 19.7264C67.2571 19.7264 67.2571 19.7265 67.2571 19.7265C67.2571 19.7265 67.2571 19.7265 67.2571 19.7265C67.2571 19.7266 67.2571 19.7266 67.2571 19.7266C67.2571 19.7266 67.2571 19.7266 67.2571 19.7267C67.2571 19.7267 67.2571 19.7267 67.2571 19.7267C67.2571 19.7267 67.2571 19.7268 67.2571 19.7268C67.2571 19.7268 67.2571 19.7268 67.2571 19.7268C67.2571 19.7269 67.2571 19.7269 67.2571 19.7269C67.2571 19.7269 67.2571 19.7269 67.2571 19.727C67.2571 19.727 67.2571 19.727 67.2571 19.727C67.2571 19.727 67.2571 19.7271 67.2571 19.7271C67.2571 19.7271 67.2571 19.7271 67.2571 19.7271C67.2571 19.7271 67.2571 19.7272 67.2571 19.7272C67.2571 19.7272 67.2571 19.7272 67.2571 19.7272C67.2571 19.7273 67.2571 19.7273 67.2571 19.7273C67.2571 19.7273 67.2571 19.7273 67.2571 19.7274C67.2571 19.7274 67.2571 19.7274 67.2571 19.7274C67.2571 19.7274 67.2571 19.7275 67.2571 19.7275C67.2571 19.7275 67.2571 19.7275 67.2571 19.7275C67.2571 19.7276 67.2571 19.7276 67.2571 19.7276C67.2571 19.7276 67.2571 19.7276 67.2571 19.7277C67.2571 19.7277 67.2571 19.7277 67.2571 19.7277C67.2571 19.7277 67.2571 19.7278 67.2571 19.7278C67.2571 19.7278 67.2571 19.7278 67.2571 19.7278C67.2571 19.7279 67.2571 19.7279 67.2571 19.7279C67.2571 19.7279 67.2571 19.7279 67.2571 19.7279C67.2571 19.728 67.2571 19.728 67.2571 19.728C67.2571 19.728 67.2571 19.728 67.2571 19.7281C67.2571 19.7281 67.2571 19.7281 67.2571 19.7281C67.2571 19.7281 67.2571 19.7282 67.2571 19.7282C67.2571 19.7282 67.2571 19.7282 67.2571 19.7282C67.2571 19.7283 67.2571 19.7283 67.2571 19.7283C67.2571 19.7283 67.2571 19.7283 67.2571 19.7284C67.2571 19.7284 67.2571 19.7284 67.2571 19.7284C67.2571 19.7284 67.2571 19.7285 67.2571 19.7285C67.2571 19.7285 67.2571 19.7285 67.2571 19.7285C67.2571 19.7286 67.2571 19.7286 67.2571 19.7286C67.2571 19.7286 67.2571 19.7286 67.2571 19.7287C67.2571 19.7287 67.2571 19.7287 67.2571 19.7287C67.2571 19.7287 67.2571 19.7287 67.2571 19.7288C67.2571 19.7288 67.2571 19.7288 67.2571 19.7288C67.2571 19.7288 67.2571 19.7289 67.2571 19.7289C67.2571 19.7289 67.2571 19.7289 67.2571 19.7289C67.2571 19.729 67.2571 19.729 67.2571 19.729C67.2571 19.729 67.2571 19.729 67.2571 19.7291C67.2571 19.7291 67.2571 19.7291 67.2571 19.7291C67.2571 19.7291 67.2571 19.7292 67.2571 19.7292C67.2571 19.7292 67.2571 19.7292 67.2571 19.7292C67.2571 19.7293 67.2571 19.7293 67.2571 19.7293C67.2571 19.7293 67.2571 19.7293 67.2571 19.7294C67.2571 19.7294 67.2571 19.7294 67.2571 19.7294C67.2571 19.7294 67.2571 19.7295 67.2571 19.7295C67.2571 19.7295 67.2571 19.7295 67.2571 19.7295C67.2571 19.7296 67.2571 19.7296 67.2571 19.7296C67.2571 19.7296 67.2571 19.7296 67.2571 19.7296C67.2571 19.7297 67.2571 19.7297 67.2571 19.7297C67.2571 19.7297 67.2571 19.7297 67.2571 19.7298C67.2571 19.7298 67.2571 19.7298 67.2571 19.7298C67.2571 19.7298 67.2571 19.7299 67.2571 19.7299C67.2571 19.7299 67.2571 19.7299 67.2571 19.7299C67.2571 19.73 67.2571 19.73 67.2571 19.73C67.2571 19.73 67.2571 19.73 67.2571 19.7301C67.2571 19.7301 67.2571 19.7301 67.2571 19.7301C67.2571 19.7301 67.2571 19.7302 67.2571 19.7302C67.2571 19.7302 67.2571 19.7302 67.2571 19.7302C67.2571 19.7303 67.2571 19.7303 67.2571 19.7303C67.2571 19.7303 67.2571 19.7303 67.2571 19.7304C67.2571 19.7304 67.2571 19.7304 67.2571 19.7304C67.2571 19.7304 67.2571 19.7304 67.2571 19.7305C67.2571 19.7305 67.2571 19.7305 67.2571 19.7305C67.2571 19.7305 67.2571 19.7306 67.2571 19.7306C67.2571 19.7306 67.2571 19.7306 67.2571 19.7306C67.2571 19.7307 67.2571 19.7307 67.2571 19.7307C67.2571 19.7307 67.2571 19.7307 67.2571 19.7308C67.2571 19.7308 67.2571 19.7308 67.2571 19.7308C67.2571 19.7308 67.2571 19.7309 67.2571 19.7309C67.2571 19.7309 67.2571 19.7309 67.2571 19.7309C67.2571 19.731 67.2571 19.731 67.2571 19.731C67.2571 19.731 67.2571 19.731 67.2571 19.7311C67.2571 19.7311 67.2571 19.7311 67.2571 19.7311C67.2571 19.7311 67.2571 19.7312 67.2571 19.7312C67.2571 19.7312 67.2571 19.7312 67.2571 19.7312C67.2571 19.7312 67.2571 19.7313 67.2571 19.7313C67.2571 19.7313 67.2571 19.7313 67.2571 19.7313C67.2571 19.7314 67.2571 19.7314 67.2571 19.7314C67.2571 19.7314 67.2571 19.7314 67.2571 19.7315C67.2571 19.7315 67.2571 19.7315 67.2571 19.7315C67.2571 19.7315 67.2571 19.7316 67.2571 19.7316C67.2571 19.7316 67.2571 19.7316 67.2571 19.7316C67.2571 19.7317 67.2571 19.7317 67.2571 19.7317C67.2571 19.7317 67.2571 19.7317 67.2571 19.7318C67.2571 19.7318 67.2571 19.7318 67.2571 19.7318C67.2571 19.7318 67.2571 19.7319 67.2571 19.7319C67.2571 19.7319 67.2571 19.7319 67.2571 19.7319C67.2571 19.732 67.2571 19.732 67.2571 19.732C67.2571 19.732 67.2571 19.732 67.2571 19.7321C67.2571 19.7321 67.2571 19.7321 67.2571 19.7321C67.2571 19.7321 67.2571 19.7321 67.2571 19.7322C67.2571 19.7322 67.2571 19.7322 67.2571 19.7322C67.2571 19.7322 67.2571 19.7323 67.2571 19.7323C67.2571 19.7323 67.2571 19.7323 67.2571 19.7323C67.2571 19.7324 67.2571 19.7324 67.2571 19.7324C67.2571 19.7324 67.2571 19.7324 67.2571 19.7325C67.2571 19.7325 67.2571 19.7325 67.2571 19.7325C67.2571 19.7325 67.2571 19.7326 67.2571 19.7326C67.2571 19.7326 67.2571 19.7326 67.2571 19.7326C67.2571 19.7327 67.2571 19.7327 67.2571 19.7327C67.2571 19.7327 67.2571 19.7327 67.2571 19.7328C67.2571 19.7328 67.2571 19.7328 67.2571 19.7328C67.2571 19.7328 67.2571 19.7329 67.2571 19.7329C67.2571 19.7329 67.2571 19.7329 67.2571 19.7329C67.2571 19.7329 67.2571 19.733 67.2571 19.733C67.2571 19.733 67.2571 19.733 67.2571 19.733C67.2571 19.7331 67.2571 19.7331 67.2571 19.7331C67.2571 19.7331 67.2571 19.7331 67.2571 19.7332C67.2571 19.7332 67.2571 19.7332 67.2571 19.7332C67.2571 19.7332 67.2571 19.7333 67.2571 19.7333C67.2571 19.7333 67.2571 19.7333 67.2571 19.7333C67.2571 19.7334 67.2571 19.7334 67.2571 19.7334C67.2571 19.7334 67.2571 19.7334 67.2571 19.7335C67.2571 19.7335 67.2571 19.7335 67.2571 19.7335C67.2571 19.7335 67.2571 19.7336 67.2571 19.7336C67.2571 19.7336 67.2571 19.7336 67.2571 19.7336C67.2571 19.7337 67.2571 19.7337 67.2571 19.7337C67.2571 19.7337 67.2571 19.7337 67.2571 19.7337C67.2571 19.7338 67.2571 19.7338 67.2571 19.7338C67.2571 19.7338 67.2571 19.7338 67.2571 19.7339C67.2571 19.7339 67.2571 19.7339 67.2571 19.7339C67.2571 19.7339 67.2571 19.734 67.2571 19.734C67.2571 19.734 67.2571 19.734 67.2571 19.734C67.2571 19.7341 67.2571 19.7341 67.2571 19.7341C67.2571 19.7341 67.2571 19.7341 67.2571 19.7342C67.2571 19.7342 67.2571 19.7342 67.2571 19.7342C67.2571 19.7342 67.2571 19.7343 67.2571 19.7343C67.2571 19.7343 67.2571 19.7343 67.2571 19.7343C67.2571 19.7344 67.2571 19.7344 67.2571 19.7344C67.2571 19.7344 67.2571 19.7344 67.2571 19.7345C67.2571 19.7345 67.2571 19.7345 67.2571 19.7345C67.2571 19.7345 67.2571 19.7346 67.2571 19.7346C67.2571 19.7346 67.2571 19.7346 67.2571 19.7346C67.2571 19.7346 67.2571 19.7347 67.2571 19.7347C67.2571 19.7347 67.2571 19.7347 67.2571 19.7347C67.2571 19.7348 67.2571 19.7348 67.2571 19.7348C67.2571 19.7348 67.2571 19.7348 67.2571 19.7349C67.2571 19.7349 67.2571 19.7349 67.2571 19.7349C67.2571 19.7349 67.2571 19.735 67.2571 19.735C67.2571 19.735 67.2571 19.735 67.2571 19.735C67.2571 19.7351 67.2571 19.7351 67.2571 19.7351C67.2571 19.7351 67.2571 19.7351 67.2571 19.7352C67.2571 19.7352 67.2571 19.7352 67.2571 19.7352C67.2571 19.7352 67.2571 19.7353 67.2571 19.7353C67.2571 19.7353 67.2571 19.7353 67.2571 19.7353C67.2571 19.7354 67.2571 19.7354 67.2571 19.7354C67.2571 19.7354 67.2571 19.7354 67.2571 19.7354C67.2571 19.7355 67.2571 19.7355 67.2571 19.7355C67.2571 19.7355 67.2571 19.7355 67.2571 19.7356C67.2571 19.7356 67.2571 19.7356 67.2571 19.7356C67.2571 19.7356 67.2571 19.7357 67.2571 19.7357C67.2571 19.7357 67.2571 19.7357 67.2571 19.7357C67.2571 19.7358 67.2571 19.7358 67.2571 19.7358C67.2571 19.7358 67.2571 19.7358 67.2571 19.7359C67.2571 19.7359 67.2571 19.7359 67.2571 19.7359C67.2571 19.7359 67.2571 19.736 67.2571 19.736C67.2571 19.736 67.2571 19.736 67.2571 19.736C67.2571 19.7361 67.2571 19.7361 67.2571 19.7361C67.2571 19.7361 67.2571 19.7361 67.2571 19.7362C67.2571 19.7362 67.2571 19.7362 67.2571 19.7362C67.2571 19.7362 67.2571 19.7362 67.2571 19.7363C67.2571 19.7363 67.2571 19.7363 67.2571 19.7363C67.2571 19.7363 67.2571 19.7364 67.2571 19.7364C67.2571 19.7364 67.2571 19.7364 67.2571 19.7364C67.2571 19.7365 67.2571 19.7365 67.2571 19.7365C67.2571 19.7365 67.2571 19.7365 67.2571 19.7366C67.2571 19.7366 67.2571 19.7366 67.2571 19.7366C67.2571 19.7366 67.2571 19.7367 67.2571 19.7367C67.2571 19.7367 67.2571 19.7367 67.2571 19.7367C67.2571 19.7368 67.2571 19.7368 67.2571 19.7368C67.2571 19.7368 67.2571 19.7368 67.2571 19.7369C67.2571 19.7369 67.2571 19.7369 67.2571 19.7369C67.2571 19.7369 67.2571 19.737 67.2571 19.737C67.2571 19.737 67.2571 19.737 67.2571 19.737C67.2571 19.7371 67.2571 19.7371 67.2571 19.7371C67.2571 19.7371 67.2571 19.7371 67.2571 19.7371C67.2571 19.7372 67.2571 19.7372 67.2571 19.7372C67.2571 19.7372 67.2571 19.7372 67.2571 19.7373C67.2571 19.7373 67.2571 19.7373 67.2571 19.7373C67.2571 19.7373 67.2571 19.7374 67.2571 19.7374C67.2571 19.7374 67.2571 19.7374 67.2571 19.7374C67.2571 19.7375 67.2571 19.7375 67.2571 19.7375C67.2571 19.7375 67.2571 19.7375 67.2571 19.7376C67.2571 19.7376 67.2571 19.7376 67.2571 19.7376C67.2571 19.7376 67.2571 19.7377 67.2571 19.7377C67.2571 19.7377 67.2571 19.7377 67.2571 19.7377C67.2571 19.7378 67.2571 19.7378 67.2571 19.7378C67.2571 19.7378 67.2571 19.7378 67.2571 19.7379C67.2571 19.7379 67.2571 19.7379 67.2571 19.7379C67.2571 19.7379 67.2571 19.7379 67.2571 19.738C67.2571 19.738 67.2571 19.738 67.2571 19.738C67.2571 19.738 67.2571 19.7381 67.2571 19.7381C67.2571 19.7381 67.2571 19.7381 67.2571 19.7381C67.2571 19.7382 67.2571 19.7382 67.2571 19.7382C67.2571 19.7382 67.2571 19.7382 67.2571 19.7383C67.2571 19.7383 67.2571 19.7383 67.2571 19.7383C67.2571 19.7383 67.2571 19.7384 67.2571 19.7384C67.2571 19.7384 67.2571 19.7384 67.2571 19.7384C67.2571 19.7385 67.2571 19.7385 67.2571 19.7385C67.2571 19.7385 67.2571 19.7385 67.2571 19.7386C67.2571 19.7386 67.2571 19.7386 67.2571 19.7386C67.2571 19.7386 67.2571 19.7387 67.2571 19.7387C67.2571 19.7387 67.2571 19.7387 67.2571 19.7387C67.2571 19.7387 67.2571 19.7388 67.2571 19.7388C67.2571 19.7388 67.2571 19.7388 67.2571 19.7388C67.2571 19.7389 67.2571 19.7389 67.2571 19.7389C67.2571 19.7389 67.2571 19.7389 67.2571 19.739C67.2571 19.739 67.2571 19.739 67.2571 19.739C67.2571 19.739 67.2571 19.7391 67.2571 19.7391C67.2571 19.7391 67.2571 19.7391 67.2571 19.7391C67.2571 19.7392 67.2571 19.7392 67.2571 19.7392C67.2571 19.7392 67.2571 19.7392 67.2571 19.7393C67.2571 19.7393 67.2571 19.7393 67.2571 19.7393C67.2571 19.7393 67.2571 19.7394 67.2571 19.7394C67.2571 19.7394 67.2571 19.7394 67.2571 19.7394C67.2571 19.7395 67.2571 19.7395 67.2571 19.7395C67.2571 19.7395 67.2571 19.7395 67.2571 19.7396C67.2571 19.7396 67.2571 19.7396 67.2571 19.7396C67.2571 19.7396 67.2571 19.7396 67.2571 19.7397C67.2571 19.7397 67.2571 19.7397 67.2571 19.7397C67.2571 19.7397 67.2571 19.7398 67.2571 19.7398C67.2571 19.7398 67.2571 19.7398 67.2571 19.7398C67.2571 19.7399 67.2571 19.7399 67.2571 19.7399C67.2571 19.7399 67.2571 19.7399 67.2571 19.74C67.2571 19.74 67.2571 19.74 67.2571 19.74C67.2571 19.74 67.2571 19.7401 67.2571 19.7401C67.2571 19.7401 67.2571 19.7401 67.2571 19.7401C67.2571 19.7402 67.2571 19.7402 67.2571 19.7402C67.2571 19.7402 67.2571 19.7402 67.2571 19.7403C67.2571 19.7403 67.2571 19.7403 67.2571 19.7403C67.2571 19.7403 67.2571 19.7404 67.2571 19.7404C67.2571 19.7404 67.2571 19.7404 67.2571 19.7404C67.2571 19.7404 67.2571 19.7405 67.2571 19.7405C67.2571 19.7405 67.2571 19.7405 67.2571 19.7405C67.2571 19.7406 67.2571 19.7406 67.2571 19.7406C67.2571 19.7406 67.2571 19.7406 67.2571 19.7407C67.2571 19.7407 67.2571 19.7407 67.2571 19.7407C67.2571 19.7407 67.2571 19.7408 67.2571 19.7408C67.2571 19.7408 67.2571 19.7408 67.2571 19.7408C67.2571 19.7409 67.2571 19.7409 67.2571 19.7409C67.2571 19.7409 67.2571 19.7409 67.2571 19.741C67.2571 19.741 67.2571 19.741 67.2571 19.741C67.2571 19.741 67.2571 19.7411 67.2571 19.7411C67.2571 19.7411 67.2571 19.7411 67.2571 19.7411C67.2571 19.7412 67.2571 19.7412 67.2571 19.7412C67.2571 19.7412 67.2571 19.7412 67.2571 19.7412C67.2571 19.7413 67.2571 19.7413 67.2571 19.7413C67.2571 19.7413 67.2571 19.7413 67.2571 19.7414C67.2571 19.7414 67.2571 19.7414 67.2571 19.7414C67.2571 19.7414 67.2571 19.7415 67.2571 19.7415C67.2571 19.7415 67.2571 19.7415 67.2571 19.7415C67.2571 19.7416 67.2571 19.7416 67.2571 19.7416C67.2571 19.7416 67.2571 19.7416 67.2571 19.7417C67.2571 19.7417 67.2571 19.7417 67.2571 19.7417C67.2571 19.7417 67.2571 19.7418 67.2571 19.7418C67.2571 19.7418 67.2571 19.7418 67.2571 19.7418C67.2571 19.7419 67.2571 19.7419 67.2571 19.7419C67.2571 19.7419 67.2571 19.7419 67.2571 19.742C67.2571 19.742 67.2571 19.742 67.2571 19.742C67.2571 19.742 67.2571 19.7421 67.2571 19.7421C67.2571 19.7421 67.2571 19.7421 67.2571 19.7421C67.2571 19.7421 67.2571 19.7422 67.2571 19.7422C67.2571 19.7422 67.2571 19.7422 67.2571 19.7422C67.2571 19.7423 67.2571 19.7423 67.2571 19.7423C67.2571 19.7423 67.2571 19.7423 67.2571 19.7424C67.2571 19.7424 67.2571 19.7424 67.2571 19.7424C67.2571 19.7424 67.2571 19.7425 67.2571 19.7425C67.2571 19.7425 67.2571 19.7425 67.2571 19.7425C67.2571 19.7426 67.2571 19.7426 67.2571 19.7426C67.2571 19.7426 67.2571 19.7426 67.2571 19.7427C67.2571 19.7427 67.2571 19.7427 67.2571 19.7427C67.2571 19.7427 67.2571 19.7428 67.2571 19.7428C67.2571 19.7428 67.2571 19.7428 67.2571 19.7428C67.2571 19.7429 67.2571 19.7429 67.2571 19.7429C67.2571 19.7429 67.2571 19.7429 67.2571 19.7429C67.2571 19.743 67.2571 19.743 67.2571 19.743C67.2571 19.743 67.2571 19.743 67.2571 19.7431C67.2571 19.7431 67.2571 19.7431 67.2571 19.7431C67.2571 19.7431 67.2571 19.7432 67.2571 19.7432C67.2571 19.7432 67.2571 19.7432 67.2571 19.7432C67.2571 19.7433 67.2571 19.7433 67.2571 19.7433C67.2571 19.7433 67.2571 19.7433 67.2571 19.7434C67.2571 19.7434 67.2571 19.7434 67.2571 19.7434C67.2571 19.7434 67.2571 19.7435 67.2571 19.7435C67.2571 19.7435 67.2571 19.7435 67.2571 19.7435C67.2571 19.7436 67.2571 19.7436 67.2571 19.7436C67.2571 19.7436 67.2571 19.7436 67.2571 19.7437C67.2571 19.7437 67.2571 19.7437 67.2571 19.7437C67.2571 19.7437 67.2571 19.7437 67.2571 19.7438C67.2571 19.7438 67.2571 19.7438 67.2571 19.7438C67.2571 19.7438 67.2571 19.7439 67.2571 19.7439C67.2571 19.7439 67.2571 19.7439 67.2571 19.7439C67.2571 19.744 67.2571 19.744 67.2571 19.744C67.2571 19.744 67.2571 19.744 67.2571 19.7441C67.2571 19.7441 67.2571 19.7441 67.2571 19.7441C67.2571 19.7441 67.2571 19.7442 67.2571 19.7442C67.2571 19.7442 67.2571 19.7442 67.2571 19.7442C67.2571 19.7443 67.2571 19.7443 67.2571 19.7443C67.2571 19.7443 67.2571 19.7443 67.2571 19.7444C67.2571 19.7444 67.2571 19.7444 67.2571 19.7444C67.2571 19.7444 67.2571 19.7445 67.2571 19.7445C67.2571 19.7445 67.2571 19.7445 67.2571 19.7445C67.2571 19.7446 67.2571 19.7446 67.2571 19.7446C67.2571 19.7446 67.2571 19.7446 67.2571 19.7446C67.2571 19.7447 67.2571 19.7447 67.2571 19.7447C67.2571 19.7447 67.2571 19.7447 67.2571 19.7448C67.2571 19.7448 67.2571 19.7448 67.2571 19.7448C67.2571 19.7448 67.2571 19.7449 67.2571 19.7449C67.2571 19.7449 67.2571 19.7449 67.2571 19.7449C67.2571 19.745 67.2571 19.745 67.2571 19.745H69.2571C69.2571 19.745 69.2571 19.745 69.2571 19.7449C69.2571 19.7449 69.2571 19.7449 69.2571 19.7449C69.2571 19.7449 69.2571 19.7448 69.2571 19.7448C69.2571 19.7448 69.2571 19.7448 69.2571 19.7448C69.2571 19.7447 69.2571 19.7447 69.2571 19.7447C69.2571 19.7447 69.2571 19.7447 69.2571 19.7446C69.2571 19.7446 69.2571 19.7446 69.2571 19.7446C69.2571 19.7446 69.2571 19.7446 69.2571 19.7445C69.2571 19.7445 69.2571 19.7445 69.2571 19.7445C69.2571 19.7445 69.2571 19.7444 69.2571 19.7444C69.2571 19.7444 69.2571 19.7444 69.2571 19.7444C69.2571 19.7443 69.2571 19.7443 69.2571 19.7443C69.2571 19.7443 69.2571 19.7443 69.2571 19.7442C69.2571 19.7442 69.2571 19.7442 69.2571 19.7442C69.2571 19.7442 69.2571 19.7441 69.2571 19.7441C69.2571 19.7441 69.2571 19.7441 69.2571 19.7441C69.2571 19.744 69.2571 19.744 69.2571 19.744C69.2571 19.744 69.2571 19.744 69.2571 19.7439C69.2571 19.7439 69.2571 19.7439 69.2571 19.7439C69.2571 19.7439 69.2571 19.7438 69.2571 19.7438C69.2571 19.7438 69.2571 19.7438 69.2571 19.7438C69.2571 19.7437 69.2571 19.7437 69.2571 19.7437C69.2571 19.7437 69.2571 19.7437 69.2571 19.7437C69.2571 19.7436 69.2571 19.7436 69.2571 19.7436C69.2571 19.7436 69.2571 19.7436 69.2571 19.7435C69.2571 19.7435 69.2571 19.7435 69.2571 19.7435C69.2571 19.7435 69.2571 19.7434 69.2571 19.7434C69.2571 19.7434 69.2571 19.7434 69.2571 19.7434C69.2571 19.7433 69.2571 19.7433 69.2571 19.7433C69.2571 19.7433 69.2571 19.7433 69.2571 19.7432C69.2571 19.7432 69.2571 19.7432 69.2571 19.7432C69.2571 19.7432 69.2571 19.7431 69.2571 19.7431C69.2571 19.7431 69.2571 19.7431 69.2571 19.7431C69.2571 19.743 69.2571 19.743 69.2571 19.743C69.2571 19.743 69.2571 19.743 69.2571 19.7429C69.2571 19.7429 69.2571 19.7429 69.2571 19.7429C69.2571 19.7429 69.2571 19.7429 69.2571 19.7428C69.2571 19.7428 69.2571 19.7428 69.2571 19.7428C69.2571 19.7428 69.2571 19.7427 69.2571 19.7427C69.2571 19.7427 69.2571 19.7427 69.2571 19.7427C69.2571 19.7426 69.2571 19.7426 69.2571 19.7426C69.2571 19.7426 69.2571 19.7426 69.2571 19.7425C69.2571 19.7425 69.2571 19.7425 69.2571 19.7425C69.2571 19.7425 69.2571 19.7424 69.2571 19.7424C69.2571 19.7424 69.2571 19.7424 69.2571 19.7424C69.2571 19.7423 69.2571 19.7423 69.2571 19.7423C69.2571 19.7423 69.2571 19.7423 69.2571 19.7422C69.2571 19.7422 69.2571 19.7422 69.2571 19.7422C69.2571 19.7422 69.2571 19.7421 69.2571 19.7421C69.2571 19.7421 69.2571 19.7421 69.2571 19.7421C69.2571 19.7421 69.2571 19.742 69.2571 19.742C69.2571 19.742 69.2571 19.742 69.2571 19.742C69.2571 19.7419 69.2571 19.7419 69.2571 19.7419C69.2571 19.7419 69.2571 19.7419 69.2571 19.7418C69.2571 19.7418 69.2571 19.7418 69.2571 19.7418C69.2571 19.7418 69.2571 19.7417 69.2571 19.7417C69.2571 19.7417 69.2571 19.7417 69.2571 19.7417C69.2571 19.7416 69.2571 19.7416 69.2571 19.7416C69.2571 19.7416 69.2571 19.7416 69.2571 19.7415C69.2571 19.7415 69.2571 19.7415 69.2571 19.7415C69.2571 19.7415 69.2571 19.7414 69.2571 19.7414C69.2571 19.7414 69.2571 19.7414 69.2571 19.7414C69.2571 19.7413 69.2571 19.7413 69.2571 19.7413C69.2571 19.7413 69.2571 19.7413 69.2571 19.7412C69.2571 19.7412 69.2571 19.7412 69.2571 19.7412C69.2571 19.7412 69.2571 19.7412 69.2571 19.7411C69.2571 19.7411 69.2571 19.7411 69.2571 19.7411C69.2571 19.7411 69.2571 19.741 69.2571 19.741C69.2571 19.741 69.2571 19.741 69.2571 19.741C69.2571 19.7409 69.2571 19.7409 69.2571 19.7409C69.2571 19.7409 69.2571 19.7409 69.2571 19.7408C69.2571 19.7408 69.2571 19.7408 69.2571 19.7408C69.2571 19.7408 69.2571 19.7407 69.2571 19.7407C69.2571 19.7407 69.2571 19.7407 69.2571 19.7407C69.2571 19.7406 69.2571 19.7406 69.2571 19.7406C69.2571 19.7406 69.2571 19.7406 69.2571 19.7405C69.2571 19.7405 69.2571 19.7405 69.2571 19.7405C69.2571 19.7405 69.2571 19.7404 69.2571 19.7404C69.2571 19.7404 69.2571 19.7404 69.2571 19.7404C69.2571 19.7404 69.2571 19.7403 69.2571 19.7403C69.2571 19.7403 69.2571 19.7403 69.2571 19.7403C69.2571 19.7402 69.2571 19.7402 69.2571 19.7402C69.2571 19.7402 69.2571 19.7402 69.2571 19.7401C69.2571 19.7401 69.2571 19.7401 69.2571 19.7401C69.2571 19.7401 69.2571 19.74 69.2571 19.74C69.2571 19.74 69.2571 19.74 69.2571 19.74C69.2571 19.7399 69.2571 19.7399 69.2571 19.7399C69.2571 19.7399 69.2571 19.7399 69.2571 19.7398C69.2571 19.7398 69.2571 19.7398 69.2571 19.7398C69.2571 19.7398 69.2571 19.7397 69.2571 19.7397C69.2571 19.7397 69.2571 19.7397 69.2571 19.7397C69.2571 19.7396 69.2571 19.7396 69.2571 19.7396C69.2571 19.7396 69.2571 19.7396 69.2571 19.7396C69.2571 19.7395 69.2571 19.7395 69.2571 19.7395C69.2571 19.7395 69.2571 19.7395 69.2571 19.7394C69.2571 19.7394 69.2571 19.7394 69.2571 19.7394C69.2571 19.7394 69.2571 19.7393 69.2571 19.7393C69.2571 19.7393 69.2571 19.7393 69.2571 19.7393C69.2571 19.7392 69.2571 19.7392 69.2571 19.7392C69.2571 19.7392 69.2571 19.7392 69.2571 19.7391C69.2571 19.7391 69.2571 19.7391 69.2571 19.7391C69.2571 19.7391 69.2571 19.739 69.2571 19.739C69.2571 19.739 69.2571 19.739 69.2571 19.739C69.2571 19.7389 69.2571 19.7389 69.2571 19.7389C69.2571 19.7389 69.2571 19.7389 69.2571 19.7388C69.2571 19.7388 69.2571 19.7388 69.2571 19.7388C69.2571 19.7388 69.2571 19.7387 69.2571 19.7387C69.2571 19.7387 69.2571 19.7387 69.2571 19.7387C69.2571 19.7387 69.2571 19.7386 69.2571 19.7386C69.2571 19.7386 69.2571 19.7386 69.2571 19.7386C69.2571 19.7385 69.2571 19.7385 69.2571 19.7385C69.2571 19.7385 69.2571 19.7385 69.2571 19.7384C69.2571 19.7384 69.2571 19.7384 69.2571 19.7384C69.2571 19.7384 69.2571 19.7383 69.2571 19.7383C69.2571 19.7383 69.2571 19.7383 69.2571 19.7383C69.2571 19.7382 69.2571 19.7382 69.2571 19.7382C69.2571 19.7382 69.2571 19.7382 69.2571 19.7381C69.2571 19.7381 69.2571 19.7381 69.2571 19.7381C69.2571 19.7381 69.2571 19.738 69.2571 19.738C69.2571 19.738 69.2571 19.738 69.2571 19.738C69.2571 19.7379 69.2571 19.7379 69.2571 19.7379C69.2571 19.7379 69.2571 19.7379 69.2571 19.7379C69.2571 19.7378 69.2571 19.7378 69.2571 19.7378C69.2571 19.7378 69.2571 19.7378 69.2571 19.7377C69.2571 19.7377 69.2571 19.7377 69.2571 19.7377C69.2571 19.7377 69.2571 19.7376 69.2571 19.7376C69.2571 19.7376 69.2571 19.7376 69.2571 19.7376C69.2571 19.7375 69.2571 19.7375 69.2571 19.7375C69.2571 19.7375 69.2571 19.7375 69.2571 19.7374C69.2571 19.7374 69.2571 19.7374 69.2571 19.7374C69.2571 19.7374 69.2571 19.7373 69.2571 19.7373C69.2571 19.7373 69.2571 19.7373 69.2571 19.7373C69.2571 19.7372 69.2571 19.7372 69.2571 19.7372C69.2571 19.7372 69.2571 19.7372 69.2571 19.7371C69.2571 19.7371 69.2571 19.7371 69.2571 19.7371C69.2571 19.7371 69.2571 19.7371 69.2571 19.737C69.2571 19.737 69.2571 19.737 69.2571 19.737C69.2571 19.737 69.2571 19.7369 69.2571 19.7369C69.2571 19.7369 69.2571 19.7369 69.2571 19.7369C69.2571 19.7368 69.2571 19.7368 69.2571 19.7368C69.2571 19.7368 69.2571 19.7368 69.2571 19.7367C69.2571 19.7367 69.2571 19.7367 69.2571 19.7367C69.2571 19.7367 69.2571 19.7366 69.2571 19.7366C69.2571 19.7366 69.2571 19.7366 69.2571 19.7366C69.2571 19.7365 69.2571 19.7365 69.2571 19.7365C69.2571 19.7365 69.2571 19.7365 69.2571 19.7364C69.2571 19.7364 69.2571 19.7364 69.2571 19.7364C69.2571 19.7364 69.2571 19.7363 69.2571 19.7363C69.2571 19.7363 69.2571 19.7363 69.2571 19.7363C69.2571 19.7362 69.2571 19.7362 69.2571 19.7362C69.2571 19.7362 69.2571 19.7362 69.2571 19.7362C69.2571 19.7361 69.2571 19.7361 69.2571 19.7361C69.2571 19.7361 69.2571 19.7361 69.2571 19.736C69.2571 19.736 69.2571 19.736 69.2571 19.736C69.2571 19.736 69.2571 19.7359 69.2571 19.7359C69.2571 19.7359 69.2571 19.7359 69.2571 19.7359C69.2571 19.7358 69.2571 19.7358 69.2571 19.7358C69.2571 19.7358 69.2571 19.7358 69.2571 19.7357C69.2571 19.7357 69.2571 19.7357 69.2571 19.7357C69.2571 19.7357 69.2571 19.7356 69.2571 19.7356C69.2571 19.7356 69.2571 19.7356 69.2571 19.7356C69.2571 19.7355 69.2571 19.7355 69.2571 19.7355C69.2571 19.7355 69.2571 19.7355 69.2571 19.7354C69.2571 19.7354 69.2571 19.7354 69.2571 19.7354C69.2571 19.7354 69.2571 19.7354 69.2571 19.7353C69.2571 19.7353 69.2571 19.7353 69.2571 19.7353C69.2571 19.7353 69.2571 19.7352 69.2571 19.7352C69.2571 19.7352 69.2571 19.7352 69.2571 19.7352C69.2571 19.7351 69.2571 19.7351 69.2571 19.7351C69.2571 19.7351 69.2571 19.7351 69.2571 19.735C69.2571 19.735 69.2571 19.735 69.2571 19.735C69.2571 19.735 69.2571 19.7349 69.2571 19.7349C69.2571 19.7349 69.2571 19.7349 69.2571 19.7349C69.2571 19.7348 69.2571 19.7348 69.2571 19.7348C69.2571 19.7348 69.2571 19.7348 69.2571 19.7347C69.2571 19.7347 69.2571 19.7347 69.2571 19.7347C69.2571 19.7347 69.2571 19.7346 69.2571 19.7346C69.2571 19.7346 69.2571 19.7346 69.2571 19.7346C69.2571 19.7346 69.2571 19.7345 69.2571 19.7345C69.2571 19.7345 69.2571 19.7345 69.2571 19.7345C69.2571 19.7344 69.2571 19.7344 69.2571 19.7344C69.2571 19.7344 69.2571 19.7344 69.2571 19.7343C69.2571 19.7343 69.2571 19.7343 69.2571 19.7343C69.2571 19.7343 69.2571 19.7342 69.2571 19.7342C69.2571 19.7342 69.2571 19.7342 69.2571 19.7342C69.2571 19.7341 69.2571 19.7341 69.2571 19.7341C69.2571 19.7341 69.2571 19.7341 69.2571 19.734C69.2571 19.734 69.2571 19.734 69.2571 19.734C69.2571 19.734 69.2571 19.7339 69.2571 19.7339C69.2571 19.7339 69.2571 19.7339 69.2571 19.7339C69.2571 19.7338 69.2571 19.7338 69.2571 19.7338C69.2571 19.7338 69.2571 19.7338 69.2571 19.7337C69.2571 19.7337 69.2571 19.7337 69.2571 19.7337C69.2571 19.7337 69.2571 19.7337 69.2571 19.7336C69.2571 19.7336 69.2571 19.7336 69.2571 19.7336C69.2571 19.7336 69.2571 19.7335 69.2571 19.7335C69.2571 19.7335 69.2571 19.7335 69.2571 19.7335C69.2571 19.7334 69.2571 19.7334 69.2571 19.7334C69.2571 19.7334 69.2571 19.7334 69.2571 19.7333C69.2571 19.7333 69.2571 19.7333 69.2571 19.7333C69.2571 19.7333 69.2571 19.7332 69.2571 19.7332C69.2571 19.7332 69.2571 19.7332 69.2571 19.7332C69.2571 19.7331 69.2571 19.7331 69.2571 19.7331C69.2571 19.7331 69.2571 19.7331 69.2571 19.733C69.2571 19.733 69.2571 19.733 69.2571 19.733C69.2571 19.733 69.2571 19.7329 69.2571 19.7329C69.2571 19.7329 69.2571 19.7329 69.2571 19.7329C69.2571 19.7329 69.2571 19.7328 69.2571 19.7328C69.2571 19.7328 69.2571 19.7328 69.2571 19.7328C69.2571 19.7327 69.2571 19.7327 69.2571 19.7327C69.2571 19.7327 69.2571 19.7327 69.2571 19.7326C69.2571 19.7326 69.2571 19.7326 69.2571 19.7326C69.2571 19.7326 69.2571 19.7325 69.2571 19.7325C69.2571 19.7325 69.2571 19.7325 69.2571 19.7325C69.2571 19.7324 69.2571 19.7324 69.2571 19.7324C69.2571 19.7324 69.2571 19.7324 69.2571 19.7323C69.2571 19.7323 69.2571 19.7323 69.2571 19.7323C69.2571 19.7323 69.2571 19.7322 69.2571 19.7322C69.2571 19.7322 69.2571 19.7322 69.2571 19.7322C69.2571 19.7321 69.2571 19.7321 69.2571 19.7321C69.2571 19.7321 69.2571 19.7321 69.2571 19.7321C69.2571 19.732 69.2571 19.732 69.2571 19.732C69.2571 19.732 69.2571 19.732 69.2571 19.7319C69.2571 19.7319 69.2571 19.7319 69.2571 19.7319C69.2571 19.7319 69.2571 19.7318 69.2571 19.7318C69.2571 19.7318 69.2571 19.7318 69.2571 19.7318C69.2571 19.7317 69.2571 19.7317 69.2571 19.7317C69.2571 19.7317 69.2571 19.7317 69.2571 19.7316C69.2571 19.7316 69.2571 19.7316 69.2571 19.7316C69.2571 19.7316 69.2571 19.7315 69.2571 19.7315C69.2571 19.7315 69.2571 19.7315 69.2571 19.7315C69.2571 19.7314 69.2571 19.7314 69.2571 19.7314C69.2571 19.7314 69.2571 19.7314 69.2571 19.7313C69.2571 19.7313 69.2571 19.7313 69.2571 19.7313C69.2571 19.7313 69.2571 19.7312 69.2571 19.7312C69.2571 19.7312 69.2571 19.7312 69.2571 19.7312C69.2571 19.7312 69.2571 19.7311 69.2571 19.7311C69.2571 19.7311 69.2571 19.7311 69.2571 19.7311C69.2571 19.731 69.2571 19.731 69.2571 19.731C69.2571 19.731 69.2571 19.731 69.2571 19.7309C69.2571 19.7309 69.2571 19.7309 69.2571 19.7309C69.2571 19.7309 69.2571 19.7308 69.2571 19.7308C69.2571 19.7308 69.2571 19.7308 69.2571 19.7308C69.2571 19.7307 69.2571 19.7307 69.2571 19.7307C69.2571 19.7307 69.2571 19.7307 69.2571 19.7306C69.2571 19.7306 69.2571 19.7306 69.2571 19.7306C69.2571 19.7306 69.2571 19.7305 69.2571 19.7305C69.2571 19.7305 69.2571 19.7305 69.2571 19.7305C69.2571 19.7304 69.2571 19.7304 69.2571 19.7304C69.2571 19.7304 69.2571 19.7304 69.2571 19.7304C69.2571 19.7303 69.2571 19.7303 69.2571 19.7303C69.2571 19.7303 69.2571 19.7303 69.2571 19.7302C69.2571 19.7302 69.2571 19.7302 69.2571 19.7302C69.2571 19.7302 69.2571 19.7301 69.2571 19.7301C69.2571 19.7301 69.2571 19.7301 69.2571 19.7301C69.2571 19.73 69.2571 19.73 69.2571 19.73C69.2571 19.73 69.2571 19.73 69.2571 19.7299C69.2571 19.7299 69.2571 19.7299 69.2571 19.7299C69.2571 19.7299 69.2571 19.7298 69.2571 19.7298C69.2571 19.7298 69.2571 19.7298 69.2571 19.7298C69.2571 19.7297 69.2571 19.7297 69.2571 19.7297C69.2571 19.7297 69.2571 19.7297 69.2571 19.7296C69.2571 19.7296 69.2571 19.7296 69.2571 19.7296C69.2571 19.7296 69.2571 19.7296 69.2571 19.7295C69.2571 19.7295 69.2571 19.7295 69.2571 19.7295C69.2571 19.7295 69.2571 19.7294 69.2571 19.7294C69.2571 19.7294 69.2571 19.7294 69.2571 19.7294C69.2571 19.7293 69.2571 19.7293 69.2571 19.7293C69.2571 19.7293 69.2571 19.7293 69.2571 19.7292C69.2571 19.7292 69.2571 19.7292 69.2571 19.7292C69.2571 19.7292 69.2571 19.7291 69.2571 19.7291C69.2571 19.7291 69.2571 19.7291 69.2571 19.7291C69.2571 19.729 69.2571 19.729 69.2571 19.729C69.2571 19.729 69.2571 19.729 69.2571 19.7289C69.2571 19.7289 69.2571 19.7289 69.2571 19.7289C69.2571 19.7289 69.2571 19.7288 69.2571 19.7288C69.2571 19.7288 69.2571 19.7288 69.2571 19.7288C69.2571 19.7287 69.2571 19.7287 69.2571 19.7287C69.2571 19.7287 69.2571 19.7287 69.2571 19.7287C69.2571 19.7286 69.2571 19.7286 69.2571 19.7286C69.2571 19.7286 69.2571 19.7286 69.2571 19.7285C69.2571 19.7285 69.2571 19.7285 69.2571 19.7285C69.2571 19.7285 69.2571 19.7284 69.2571 19.7284C69.2571 19.7284 69.2571 19.7284 69.2571 19.7284C69.2571 19.7283 69.2571 19.7283 69.2571 19.7283C69.2571 19.7283 69.2571 19.7283 69.2571 19.7282C69.2571 19.7282 69.2571 19.7282 69.2571 19.7282C69.2571 19.7282 69.2571 19.7281 69.2571 19.7281C69.2571 19.7281 69.2571 19.7281 69.2571 19.7281C69.2571 19.728 69.2571 19.728 69.2571 19.728C69.2571 19.728 69.2571 19.728 69.2571 19.7279C69.2571 19.7279 69.2571 19.7279 69.2571 19.7279C69.2571 19.7279 69.2571 19.7279 69.2571 19.7278C69.2571 19.7278 69.2571 19.7278 69.2571 19.7278C69.2571 19.7278 69.2571 19.7277 69.2571 19.7277C69.2571 19.7277 69.2571 19.7277 69.2571 19.7277C69.2571 19.7276 69.2571 19.7276 69.2571 19.7276C69.2571 19.7276 69.2571 19.7276 69.2571 19.7275C69.2571 19.7275 69.2571 19.7275 69.2571 19.7275C69.2571 19.7275 69.2571 19.7274 69.2571 19.7274C69.2571 19.7274 69.2571 19.7274 69.2571 19.7274C69.2571 19.7273 69.2571 19.7273 69.2571 19.7273C69.2571 19.7273 69.2571 19.7273 69.2571 19.7272C69.2571 19.7272 69.2571 19.7272 69.2571 19.7272C69.2571 19.7272 69.2571 19.7271 69.2571 19.7271C69.2571 19.7271 69.2571 19.7271 69.2571 19.7271C69.2571 19.7271 69.2571 19.727 69.2571 19.727C69.2571 19.727 69.2571 19.727 69.2571 19.727C69.2571 19.7269 69.2571 19.7269 69.2571 19.7269C69.2571 19.7269 69.2571 19.7269 69.2571 19.7268C69.2571 19.7268 69.2571 19.7268 69.2571 19.7268C69.2571 19.7268 69.2571 19.7267 69.2571 19.7267C69.2571 19.7267 69.2571 19.7267 69.2571 19.7267C69.2571 19.7266 69.2571 19.7266 69.2571 19.7266C69.2571 19.7266 69.2571 19.7266 69.2571 19.7265C69.2571 19.7265 69.2571 19.7265 69.2571 19.7265C69.2571 19.7265 69.2571 19.7264 69.2571 19.7264C69.2571 19.7264 69.2571 19.7264 69.2571 19.7264C69.2571 19.7263 69.2571 19.7263 69.2571 19.7263C69.2571 19.7263 69.2571 19.7263 69.2571 19.7262C69.2571 19.7262 69.2571 19.7262 69.2571 19.7262C69.2571 19.7262 69.2571 19.7262 69.2571 19.7261C69.2571 19.7261 69.2571 19.7261 69.2571 19.7261C69.2571 19.7261 69.2571 19.726 69.2571 19.726C69.2571 19.726 69.2571 19.726 69.2571 19.726C69.2571 19.7259 69.2571 19.7259 69.2571 19.7259C69.2571 19.7259 69.2571 19.7259 69.2571 19.7258C69.2571 19.7258 69.2571 19.7258 69.2571 19.7258C69.2571 19.7258 69.2571 19.7257 69.2571 19.7257C69.2571 19.7257 69.2571 19.7257 69.2571 19.7257C69.2571 19.7256 69.2571 19.7256 69.2571 19.7256C69.2571 19.7256 69.2571 19.7256 69.2571 19.7255C69.2571 19.7255 69.2571 19.7255 69.2571 19.7255C69.2571 19.7255 69.2571 19.7254 69.2571 19.7254C69.2571 19.7254 69.2571 19.7254 69.2571 19.7254C69.2571 19.7254 69.2571 19.7253 69.2571 19.7253C69.2571 19.7253 69.2571 19.7253 69.2571 19.7253C69.2571 19.7252 69.2571 19.7252 69.2571 19.7252C69.2571 19.7252 69.2571 19.7252 69.2571 19.7251C69.2571 19.7251 69.2571 19.7251 69.2571 19.7251C69.2571 19.7251 69.2571 19.725 69.2571 19.725C69.2571 19.725 69.2571 19.725 69.2571 19.725C69.2571 19.7249 69.2571 19.7249 69.2571 19.7249C69.2571 19.7249 69.2571 19.7249 69.2571 19.7248C69.2571 19.7248 69.2571 19.7248 69.2571 19.7248C69.2571 19.7248 69.2571 19.7247 69.2571 19.7247C69.2571 19.7247 69.2571 19.7247 69.2571 19.7247C69.2571 19.7246 69.2571 19.7246 69.2571 19.7246C69.2571 19.7246 69.2571 19.7246 69.2571 19.7246C69.2571 19.7245 69.2571 19.7245 69.2571 19.7245C69.2571 19.7245 69.2571 19.7245 69.2571 19.7244C69.2571 19.7244 69.2571 19.7244 69.2571 19.7244C69.2571 19.7244 69.2571 19.7243 69.2571 19.7243C69.2571 19.7243 69.2571 19.7243 69.2571 19.7243C69.2571 19.7242 69.2571 19.7242 69.2571 19.7242C69.2571 19.7242 69.2571 19.7242 69.2571 19.7241C69.2571 19.7241 69.2571 19.7241 69.2571 19.7241C69.2571 19.7241 69.2571 19.724 69.2571 19.724C69.2571 19.724 69.2571 19.724 69.2571 19.724C69.2571 19.7239 69.2571 19.7239 69.2571 19.7239C69.2571 19.7239 69.2571 19.7239 69.2571 19.7238C69.2571 19.7238 69.2571 19.7238 69.2571 19.7238C69.2571 19.7238 69.2571 19.7237 69.2571 19.7237C69.2571 19.7237 69.2571 19.7237 69.2571 19.7237C69.2571 19.7237 69.2571 19.7236 69.2571 19.7236C69.2571 19.7236 69.2571 19.7236 69.2571 19.7236C69.2571 19.7235 69.2571 19.7235 69.2571 19.7235C69.2571 19.7235 69.2571 19.7235 69.2571 19.7234C69.2571 19.7234 69.2571 19.7234 69.2571 19.7234C69.2571 19.7234 69.2571 19.7233 69.2571 19.7233C69.2571 19.7233 69.2571 19.7233 69.2571 19.7233C69.2571 19.7232 69.2571 19.7232 69.2571 19.7232C69.2571 19.7232 69.2571 19.7232 69.2571 19.7231C69.2571 19.7231 69.2571 19.7231 69.2571 19.7231C69.2571 19.7231 69.2571 19.723 69.2571 19.723C69.2571 19.723 69.2571 19.723 69.2571 19.723C69.2571 19.7229 69.2571 19.7229 69.2571 19.7229C69.2571 19.7229 69.2571 19.7229 69.2571 19.7229C69.2571 19.7228 69.2571 19.7228 69.2571 19.7228C69.2571 19.7228 69.2571 19.7228 69.2571 19.7227C69.2571 19.7227 69.2571 19.7227 69.2571 19.7227C69.2571 19.7227 69.2571 19.7226 69.2571 19.7226C69.2571 19.7226 69.2571 19.7226 69.2571 19.7226C69.2571 19.7225 69.2571 19.7225 69.2571 19.7225C69.2571 19.7225 69.2571 19.7225 69.2571 19.7224C69.2571 19.7224 69.2571 19.7224 69.2571 19.7224C69.2571 19.7224 69.2571 19.7223 69.2571 19.7223C69.2571 19.7223 69.2571 19.7223 69.2571 19.7223C69.2571 19.7222 69.2571 19.7222 69.2571 19.7222C69.2571 19.7222 69.2571 19.7222 69.2571 19.7221C69.2571 19.7221 69.2571 19.7221 69.2571 19.7221C69.2571 19.7221 69.2571 19.7221 69.2571 19.722C69.2571 19.722 69.2571 19.722 69.2571 19.722C69.2571 19.722 69.2571 19.7219 69.2571 19.7219C69.2571 19.7219 69.2571 19.7219 69.2571 19.7219C69.2571 19.7218 69.2571 19.7218 69.2571 19.7218C69.2571 19.7218 69.2571 19.7218 69.2571 19.7217C69.2571 19.7217 69.2571 19.7217 69.2571 19.7217C69.2571 19.7217 69.2571 19.7216 69.2571 19.7216C69.2571 19.7216 69.2571 19.7216 69.2571 19.7216C69.2571 19.7215 69.2571 19.7215 69.2571 19.7215C69.2571 19.7215 69.2571 19.7215 69.2571 19.7214C69.2571 19.7214 69.2571 19.7214 69.2571 19.7214C69.2571 19.7214 69.2571 19.7213 69.2571 19.7213C69.2571 19.7213 69.2571 19.7213 69.2571 19.7213C69.2571 19.7212 69.2571 19.7212 69.2571 19.7212C69.2571 19.7212 69.2571 19.7212 69.2571 19.7212C69.2571 19.7211 69.2571 19.7211 69.2571 19.7211C69.2571 19.7211 69.2571 19.7211 69.2571 19.721C69.2571 19.721 69.2571 19.721 69.2571 19.721C69.2571 19.721 69.2571 19.7209 69.2571 19.7209C69.2571 19.7209 69.2571 19.7209 69.2571 19.7209C69.2571 19.7208 69.2571 19.7208 69.2571 19.7208C69.2571 19.7208 69.2571 19.7208 69.2571 19.7207C69.2571 19.7207 69.2571 19.7207 69.2571 19.7207C69.2571 19.7207 69.2571 19.7206 69.2571 19.7206C69.2571 19.7206 69.2571 19.7206 69.2571 19.7206C69.2571 19.7205 69.2571 19.7205 69.2571 19.7205C69.2571 19.7205 69.2571 19.7205 69.2571 19.7204C69.2571 19.7204 69.2571 19.7204 69.2571 19.7204C69.2571 19.7204 69.2571 19.7204 69.2571 19.7203C69.2571 19.7203 69.2571 19.7203 69.2571 19.7203C69.2571 19.7203 69.2571 19.7202 69.2571 19.7202C69.2571 19.7202 69.2571 19.7202 69.2571 19.7202C69.2571 19.7201 69.2571 19.7201 69.2571 19.7201C69.2571 19.7201 69.2571 19.7201 69.2571 19.72C69.2571 19.72 69.2571 19.72 69.2571 19.72C69.2571 19.72 69.2571 19.7199 69.2571 19.7199C69.2571 19.7199 69.2571 19.7199 69.2571 19.7199C69.2571 19.7198 69.2571 19.7198 69.2571 19.7198C69.2571 19.7198 69.2571 19.7198 69.2571 19.7197C69.2571 19.7197 69.2571 19.7197 69.2571 19.7197C69.2571 19.7197 69.2571 19.7196 69.2571 19.7196C69.2571 19.7196 69.2571 19.7196 69.2571 19.7196C69.2571 19.7196 69.2571 19.7195 69.2571 19.7195C69.2571 19.7195 69.2571 19.7195 69.2571 19.7195C69.2571 19.7194 69.2571 19.7194 69.2571 19.7194C69.2571 19.7194 69.2571 19.7194 69.2571 19.7193C69.2571 19.7193 69.2571 19.7193 69.2571 19.7193C69.2571 19.7193 69.2571 19.7192 69.2571 19.7192C69.2571 19.7192 69.2571 19.7192 69.2571 19.7192C69.2571 19.7191 69.2571 19.7191 69.2571 19.7191C69.2571 19.7191 69.2571 19.7191 69.2571 19.719C69.2571 19.719 69.2571 19.719 69.2571 19.719C69.2571 19.719 69.2571 19.7189 69.2571 19.7189C69.2571 19.7189 69.2571 19.7189 69.2571 19.7189C69.2571 19.7188 69.2571 19.7188 69.2571 19.7188C69.2571 19.7188 69.2571 19.7188 69.2571 19.7187C69.2571 19.7187 69.2571 19.7187 69.2571 19.7187C69.2571 19.7187 69.2571 19.7187 69.2571 19.7186C69.2571 19.7186 69.2571 19.7186 69.2571 19.7186C69.2571 19.7186 69.2571 19.7185 69.2571 19.7185C69.2571 19.7185 69.2571 19.7185 69.2571 19.7185C69.2571 19.7184 69.2571 19.7184 69.2571 19.7184C69.2571 19.7184 69.2571 19.7184 69.2571 19.7183C69.2571 19.7183 69.2571 19.7183 69.2571 19.7183C69.2571 19.7183 69.2571 19.7182 69.2571 19.7182C69.2571 19.7182 69.2571 19.7182 69.2571 19.7182C69.2571 19.7181 69.2571 19.7181 69.2571 19.7181C69.2571 19.7181 69.2571 19.7181 69.2571 19.718C69.2571 19.718 69.2571 19.718 69.2571 19.718C69.2571 19.718 69.2571 19.7179 69.2571 19.7179C69.2571 19.7179 69.2571 19.7179 69.2571 19.7179C69.2571 19.7179 69.2571 19.7178 69.2571 19.7178C69.2571 19.7178 69.2571 19.7178 69.2571 19.7178C69.2571 19.7177 69.2571 19.7177 69.2571 19.7177C69.2571 19.7177 69.2571 19.7177 69.2571 19.7176C69.2571 19.7176 69.2571 19.7176 69.2571 19.7176C69.2571 19.7176 69.2571 19.7175 69.2571 19.7175C69.2571 19.7175 69.2571 19.7175 69.2571 19.7175C69.2571 19.7174 69.2571 19.7174 69.2571 19.7174C69.2571 19.7174 69.2571 19.7174 69.2571 19.7173C69.2571 19.7173 69.2571 19.7173 69.2571 19.7173C69.2571 19.7173 69.2571 19.7172 69.2571 19.7172C69.2571 19.7172 69.2571 19.7172 69.2571 19.7172C69.2571 19.7171 69.2571 19.7171 69.2571 19.7171C69.2571 19.7171 69.2571 19.7171 69.2571 19.7171C69.2571 19.717 69.2571 19.717 69.2571 19.717C69.2571 19.717 69.2571 19.717 69.2571 19.7169C69.2571 19.7169 69.2571 19.7169 69.2571 19.7169C69.2571 19.7169 69.2571 19.7168 69.2571 19.7168C69.2571 19.7168 69.2571 19.7168 69.2571 19.7168C69.2571 19.7167 69.2571 19.7167 69.2571 19.7167C69.2571 19.7167 69.2571 19.7167 69.2571 19.7166C69.2571 19.7166 69.2571 19.7166 69.2571 19.7166C69.2571 19.7166 69.2571 19.7165 69.2571 19.7165C69.2571 19.7165 69.2571 19.7165 69.2571 19.7165C69.2571 19.7164 69.2571 19.7164 69.2571 19.7164C69.2571 19.7164 69.2571 19.7164 69.2571 19.7163C69.2571 19.7163 69.2571 19.7163 69.2571 19.7163C69.2571 19.7163 69.2571 19.7162 69.2571 19.7162C69.2571 19.7162 69.2571 19.7162 69.2571 19.7162C69.2571 19.7162 69.2571 19.7161 69.2571 19.7161C69.2571 19.7161 69.2571 19.7161 69.2571 19.7161C69.2571 19.716 69.2571 19.716 69.2571 19.716C69.2571 19.716 69.2571 19.716 69.2571 19.7159C69.2571 19.7159 69.2571 19.7159 69.2571 19.7159C69.2571 19.7159 69.2571 19.7158 69.2571 19.7158C69.2571 19.7158 69.2571 19.7158 69.2571 19.7158C69.2571 19.7157 69.2571 19.7157 69.2571 19.7157C69.2571 19.7157 69.2571 19.7157 69.2571 19.7156C69.2571 19.7156 69.2571 19.7156 69.2571 19.7156C69.2571 19.7156 69.2571 19.7155 69.2571 19.7155C69.2571 19.7155 69.2571 19.7155 69.2571 19.7155C69.2571 19.7154 69.2571 19.7154 69.2571 19.7154C69.2571 19.7154 69.2571 19.7154 69.2571 19.7154C69.2571 19.7153 69.2571 19.7153 69.2571 19.7153C69.2571 19.7153 69.2571 19.7153 69.2571 19.7152C69.2571 19.7152 69.2571 19.7152 69.2571 19.7152C69.2571 19.7152 69.2571 19.7151 69.2571 19.7151C69.2571 19.7151 69.2571 19.7151 69.2571 19.7151C69.2571 19.715 69.2571 19.715 69.2571 19.715H67.2571ZM67.2571 19.745V27.65H69.2571V19.745H67.2571ZM68.2571 26.65H68.1071V28.65H68.2571V26.65ZM69.1071 27.65V19.715H67.1071V27.65H69.1071ZM69.1071 19.715C69.1071 19.795 69.0937 19.9123 69.0359 20.0424C68.9755 20.1783 68.8814 20.2943 68.7671 20.38L67.5671 18.78C67.2236 19.0376 67.1071 19.411 67.1071 19.715H69.1071ZM68.7671 20.38C68.6779 20.4469 68.5126 20.535 68.2871 20.535V18.535C67.9816 18.535 67.7362 18.6531 67.5671 18.78L68.7671 20.38ZM68.2871 20.535C68.1521 20.535 67.9894 20.4984 67.8374 20.397L68.9468 18.733C68.7348 18.5916 68.5021 18.535 68.2871 18.535V20.535ZM67.8374 20.3971C67.8189 20.3848 67.8058 20.3748 67.7986 20.3691C67.7912 20.3633 67.7869 20.3595 67.7861 20.3588C67.785 20.3579 67.7909 20.363 67.805 20.3771L69.2192 18.9629C69.158 18.9017 69.0616 18.8095 68.9468 18.7329L67.8374 20.3971ZM82.161 25.085V24.085H81.161V25.085H82.161ZM82.161 27.65V28.65H83.161V27.65H82.161ZM82.011 27.65H81.011V28.65H82.011V27.65ZM82.011 25.085H83.011V24.085H82.011V25.085ZM81.261 24.935L80.754 25.7969L80.7646 25.8032L80.7754 25.8092L81.261 24.935ZM80.766 24.455L79.9539 25.0385L79.9573 25.0432L80.766 24.455ZM79.311 22.43L80.1232 21.8465L80.1174 21.8386L79.311 22.43ZM79.116 21.905L78.121 22.0045L78.121 22.0045L79.116 21.905ZM79.086 19.55V18.55H78.086V19.55H79.086ZM79.236 19.55H80.236V18.55H79.236V19.55ZM79.266 21.875L78.2715 21.9797L78.2721 21.9854L79.266 21.875ZM79.446 22.37L78.614 22.9247L78.6237 22.9393L78.6339 22.9535L79.446 22.37ZM80.901 24.395L81.7395 23.85L81.7267 23.8304L81.7131 23.8115L80.901 24.395ZM81.351 24.815L81.7768 23.9102L81.7768 23.9102L81.351 24.815ZM82.776 24.815L83.2466 25.6974L83.2565 25.6921L83.2663 25.6866L82.776 24.815ZM83.241 24.395L84.0259 25.0146L84.0354 25.0026L84.0446 24.9902L83.241 24.395ZM84.741 22.37L83.9484 21.7603L83.9429 21.7675L83.9375 21.7748L84.741 22.37ZM84.921 21.89L85.9155 21.9947L85.9161 21.9895L84.921 21.89ZM84.951 19.55V18.55H83.951V19.55H84.951ZM85.101 19.55H86.101V18.55H85.101V19.55ZM85.071 21.905L84.076 21.8055L84.0736 21.8289L84.0724 21.8524L85.071 21.905ZM84.876 22.43L84.076 21.83L84.0725 21.8348L84.876 22.43ZM83.376 24.455L82.5724 23.8597L82.5673 23.8668L83.376 24.455ZM82.866 24.935L82.3804 24.0608L82.3696 24.0668L82.359 24.0731L82.866 24.935ZM82.266 24.085H82.161V26.085H82.266V24.085ZM81.161 25.085V27.65H83.161V25.085H81.161ZM82.161 26.65H82.011V28.65H82.161V26.65ZM83.011 27.65V25.085H81.011V27.65H83.011ZM82.011 24.085H81.861V26.085H82.011V24.085ZM81.861 24.085C81.799 24.085 81.768 24.0727 81.7467 24.0608L80.7754 25.8092C81.1141 25.9973 81.4831 26.085 81.861 26.085V24.085ZM81.768 24.0731C81.7521 24.0637 81.6827 24.0153 81.5748 23.8668L79.9573 25.0432C80.1693 25.3347 80.4299 25.6063 80.754 25.7969L81.768 24.0731ZM81.5781 23.8715L80.1231 21.8465L78.4989 23.0135L79.9539 25.0385L81.5781 23.8715ZM80.1174 21.8386C80.1171 21.8382 80.1172 21.8383 80.1174 21.8387C80.1177 21.8392 80.1176 21.8391 80.1172 21.8381C80.1166 21.8365 80.1132 21.827 80.1111 21.8055L78.121 22.0045C78.1573 22.3675 78.2804 22.7157 78.5046 23.0214L80.1174 21.8386ZM80.1111 21.8055C80.0947 21.6415 80.086 21.4648 80.086 21.275H78.086C78.086 21.5252 78.0974 21.7685 78.121 22.0045L80.1111 21.8055ZM80.086 21.275V19.55H78.086V21.275H80.086ZM79.086 20.55H79.236V18.55H79.086V20.55ZM78.236 19.55V21.275H80.236V19.55H78.236ZM78.236 21.275C78.236 21.5166 78.2475 21.7517 78.2715 21.9797L80.2605 21.7703C80.2445 21.6183 80.236 21.4534 80.236 21.275H78.236ZM78.2721 21.9854C78.3097 22.3236 78.4249 22.641 78.614 22.9247L80.2781 21.8153C80.2672 21.799 80.2623 21.7864 80.2599 21.7646L78.2721 21.9854ZM78.6339 22.9535L80.0889 24.9785L81.7131 23.8115L80.2581 21.7865L78.6339 22.9535ZM80.0626 24.94C80.2669 25.2544 80.547 25.5418 80.9252 25.7198L81.7768 23.9102C81.7941 23.9183 81.7993 23.9245 81.7933 23.9189C81.7864 23.9125 81.7672 23.8926 81.7395 23.85L80.0626 24.94ZM80.9252 25.7198C81.2143 25.8558 81.5289 25.935 81.861 25.935V23.935C81.8531 23.935 81.8278 23.9342 81.7768 23.9102L80.9252 25.7198ZM81.861 25.935H82.266V23.935H81.861V25.935ZM82.266 25.935C82.6005 25.935 82.9354 25.8633 83.2466 25.6974L82.3054 23.9326C82.3087 23.9309 82.3102 23.9308 82.307 23.9316C82.3033 23.9324 82.2906 23.935 82.266 23.935V25.935ZM83.2663 25.6866C83.5699 25.5158 83.8195 25.2761 84.0259 25.0146L82.4561 23.7754C82.3625 23.8939 82.3021 23.9342 82.2858 23.9434L83.2663 25.6866ZM84.0446 24.9902L85.5446 22.9652L83.9375 21.7748L82.4375 23.7998L84.0446 24.9902ZM85.5336 22.9797C85.7638 22.6805 85.8794 22.3377 85.9155 21.9947L83.9265 21.7853C83.9244 21.8058 83.9217 21.8094 83.9247 21.8014C83.9262 21.7974 83.9288 21.7913 83.9329 21.7838C83.9371 21.7762 83.9423 21.7682 83.9484 21.7603L85.5336 22.9797ZM85.9161 21.9895C85.9395 21.755 85.951 21.5168 85.951 21.275H83.951C83.951 21.4532 83.9425 21.625 83.926 21.7905L85.9161 21.9895ZM85.951 21.275V19.55H83.951V21.275H85.951ZM84.951 20.55H85.101V18.55H84.951V20.55ZM84.101 19.55V21.275H86.101V19.55H84.101ZM84.101 21.275C84.101 21.4648 84.0924 21.6415 84.076 21.8055L86.0661 22.0045C86.0897 21.7685 86.101 21.5252 86.101 21.275H84.101ZM84.0724 21.8524C84.0725 21.851 84.0728 21.8478 84.0737 21.8434C84.0746 21.839 84.0759 21.8345 84.0773 21.8306C84.0788 21.8266 84.08 21.8243 84.0803 21.8238C84.0806 21.8233 84.0795 21.8254 84.076 21.83L85.676 23.03C85.9086 22.7198 86.0487 22.3561 86.0696 21.9576L84.0724 21.8524ZM84.0725 21.8348L82.5725 23.8598L84.1796 25.0502L85.6796 23.0252L84.0725 21.8348ZM82.5673 23.8668C82.4666 24.0052 82.3992 24.0504 82.3804 24.0608L83.3517 25.8092C83.6928 25.6196 83.9654 25.3448 84.1848 25.0432L82.5673 23.8668ZM82.359 24.0731C82.359 24.0731 82.359 24.0731 82.3589 24.0731C82.3589 24.0731 82.3588 24.0732 82.3587 24.0732C82.3585 24.0733 82.358 24.0736 82.3572 24.0739C82.3556 24.0745 82.3521 24.0758 82.346 24.0774C82.3338 24.0804 82.3085 24.085 82.266 24.085V26.085C82.6443 26.085 83.0254 26.0014 83.373 25.7969L82.359 24.0731ZM93.2598 27.65H92.2598V28.65H93.2598V27.65ZM93.2598 19.55V18.55H92.2598V19.55H93.2598ZM98.1198 19.715L97.7854 20.6575L97.7948 20.6607L98.1198 19.715ZM98.8548 20.165L98.1096 20.8318L98.1186 20.8418L98.1278 20.8516L98.8548 20.165ZM99.1998 20.825L98.2254 21.0499L98.2275 21.0584L99.1998 20.825ZM99.1998 26.42L98.2275 26.1866L98.223 26.2052L98.2193 26.2239L99.1998 26.42ZM98.8698 27.065L99.5969 27.7516L99.5969 27.7516L98.8698 27.065ZM98.1348 27.5L98.4331 28.4545L98.4466 28.4503L98.4599 28.4457L98.1348 27.5ZM93.4098 19.7V18.7H92.4098V19.7H93.4098ZM93.4098 27.5H92.4098V28.5H93.4098V27.5ZM98.0448 27.365L98.3412 28.3201L98.3512 28.317L98.3611 28.3137L98.0448 27.365ZM98.7348 26.975L99.442 27.6821L99.4527 27.6714L99.463 27.6604L98.7348 26.975ZM99.0498 26.375L98.0797 26.1325L98.076 26.1475L98.0727 26.1626L99.0498 26.375ZM99.0498 20.87L98.0797 21.1125L98.0797 21.1125L99.0498 20.87ZM98.7198 20.255L99.448 19.5696L99.448 19.5696L98.7198 20.255ZM98.0298 19.85L97.7038 20.7954L97.7136 20.7987L98.0298 19.85ZM94.2598 27.65V19.55H92.2598V27.65H94.2598ZM93.2598 20.55H96.8898V18.55H93.2598V20.55ZM96.8898 20.55C97.3416 20.55 97.625 20.6005 97.7854 20.6574L98.4543 18.7726C97.9946 18.6095 97.4581 18.55 96.8898 18.55V20.55ZM97.7948 20.6607C98.0042 20.7327 98.0848 20.8041 98.1096 20.8318L99.6001 19.4982C99.2849 19.1459 98.8754 18.9173 98.4449 18.7693L97.7948 20.6607ZM98.1278 20.8516C98.1664 20.8924 98.2022 20.9491 98.2255 21.0499L100.174 20.6001C100.077 20.1809 99.8833 19.7976 99.5819 19.4784L98.1278 20.8516ZM98.2275 21.0584C98.267 21.2229 98.2898 21.4138 98.2898 21.635H100.29C100.29 21.2762 100.253 20.9271 100.172 20.5916L98.2275 21.0584ZM98.2898 21.635V25.61H100.29V21.635H98.2898ZM98.2898 25.61C98.2898 25.8312 98.267 26.0221 98.2275 26.1866L100.172 26.6534C100.253 26.3179 100.29 25.9688 100.29 25.61H98.2898ZM98.2193 26.2239C98.2049 26.2956 98.18 26.3391 98.1428 26.3784L99.5969 27.7516C99.8997 27.4309 100.095 27.0444 100.18 26.6161L98.2193 26.2239ZM98.1428 26.3784C98.117 26.4057 98.0301 26.4786 97.8098 26.5543L98.4599 28.4457C98.8795 28.3014 99.2826 28.0843 99.5969 27.7516L98.1428 26.3784ZM97.8366 26.5455C97.6495 26.604 97.3456 26.65 96.8898 26.65V28.65C97.4541 28.65 97.9802 28.596 98.4331 28.4545L97.8366 26.5455ZM96.8898 26.65H93.2598V28.65H96.8898V26.65ZM96.8898 18.7H93.4098V20.7H96.8898V18.7ZM92.4098 19.7V27.5H94.4098V19.7H92.4098ZM93.4098 28.5H96.8898V26.5H93.4098V28.5ZM96.8898 28.5C97.4192 28.5 97.9163 28.4519 98.3412 28.3201L97.7484 26.4099C97.5934 26.4581 97.3205 26.5 96.8898 26.5V28.5ZM98.3611 28.3137C98.7533 28.1829 99.1374 27.9866 99.442 27.6821L98.0277 26.2679C98.0123 26.2834 97.9364 26.3471 97.7286 26.4163L98.3611 28.3137ZM99.463 27.6604C99.7485 27.3571 99.9388 26.9932 100.027 26.5874L98.0727 26.1626C98.0609 26.2168 98.0412 26.2529 98.0066 26.2896L99.463 27.6604ZM100.02 26.6175C100.102 26.2914 100.14 25.9544 100.14 25.61H98.1398C98.1398 25.8056 98.1182 25.9786 98.0797 26.1325L100.02 26.6175ZM100.14 25.61V21.635H98.1398V25.61H100.14ZM100.14 21.635C100.14 21.2906 100.102 20.9536 100.02 20.6275L98.0797 21.1125C98.1182 21.2664 98.1398 21.4394 98.1398 21.635H100.14ZM100.02 20.6275C99.9211 20.2318 99.7323 19.8716 99.448 19.5696L97.9916 20.9404C98.0274 20.9784 98.0586 21.0282 98.0797 21.1125L100.02 20.6275ZM99.448 19.5696C99.1416 19.244 98.7499 19.0359 98.3461 18.9013L97.7136 20.7987C97.9098 20.8641 97.9781 20.926 97.9916 20.9404L99.448 19.5696ZM98.3558 18.9046C97.9207 18.7546 97.4182 18.7 96.8898 18.7V20.7C97.3015 20.7 97.559 20.7454 97.7039 20.7954L98.3558 18.9046ZM104.331 24.92H103.331V25.92H104.331V24.92ZM110.181 24.92V25.92H111.181V24.92H110.181ZM110.106 23.705L109.121 23.8763L109.125 23.897L109.129 23.9174L110.106 23.705ZM109.941 23.06L110.885 22.7297L110.875 22.6995L110.862 22.6702L109.941 23.06ZM108.906 20.615L107.985 21.0046L107.985 21.0048L108.906 20.615ZM108.561 19.97L107.729 20.5247L107.737 20.5358L107.744 20.5467L108.561 19.97ZM105.861 19.97L106.678 20.5467L106.686 20.5358L106.693 20.5247L105.861 19.97ZM105.531 20.6L104.603 20.2286L104.6 20.2365L105.531 20.6ZM104.571 23.06L103.64 22.6965L103.633 22.7129L103.627 22.7296L104.571 23.06ZM104.391 23.705L103.414 23.4926L103.41 23.513L103.406 23.5337L104.391 23.705ZM110.181 27.65H109.181V28.65H110.181V27.65ZM110.181 25.07H111.181V24.07H110.181V25.07ZM104.331 25.07V24.07H103.331V25.07H104.331ZM104.331 27.65V28.65H105.331V27.65H104.331ZM104.181 27.65H103.181V28.65H104.181V27.65ZM104.241 23.69L103.262 23.486L103.259 23.5023L103.256 23.5187L104.241 23.69ZM104.436 23L103.505 22.6365L103.5 22.6473L103.496 22.6583L104.436 23ZM105.396 20.54L104.465 20.1743L104.465 20.1765L105.396 20.54ZM105.771 19.835L106.576 20.4282L106.576 20.4282L105.771 19.835ZM108.651 19.835L107.826 20.3997L107.836 20.4141L107.846 20.4282L108.651 19.835ZM109.041 20.555L108.117 20.9374L108.12 20.9448L109.041 20.555ZM110.076 23L111.016 22.6583L111.007 22.634L110.997 22.6102L110.076 23ZM110.256 23.69L109.27 23.8544L109.274 23.8785L109.279 23.9024L110.256 23.69ZM110.331 27.65V28.65H111.331V27.65H110.331ZM103.331 24.455V24.92H105.331V24.455H103.331ZM104.331 25.92H110.181V23.92H104.331V25.92ZM111.181 24.92V24.455H109.181V24.92H111.181ZM111.181 24.455C111.181 24.1238 111.151 23.8017 111.083 23.4926L109.129 23.9174C109.162 24.0683 109.181 24.2462 109.181 24.455H111.181ZM111.091 23.5337C111.043 23.255 110.975 22.9863 110.885 22.7297L108.997 23.3903C109.048 23.5337 109.09 23.695 109.121 23.8763L111.091 23.5337ZM110.862 22.6702L109.827 20.2252L107.985 21.0048L109.02 23.4498L110.862 22.6702ZM109.827 20.2254C109.698 19.9211 109.551 19.6383 109.378 19.3933L107.744 20.5467C107.811 20.6417 107.894 20.7889 107.985 21.0046L109.827 20.2254ZM109.393 19.4153C109.034 18.8764 108.465 18.7 107.961 18.7V20.7C107.997 20.7 107.97 20.7062 107.911 20.6794C107.842 20.6484 107.775 20.5933 107.729 20.5247L109.393 19.4153ZM107.961 18.7H106.491V20.7H107.961V18.7ZM106.491 18.7C105.998 18.7 105.401 18.8572 105.029 19.4153L106.693 20.5247C106.669 20.561 106.638 20.5958 106.601 20.6258C106.565 20.6556 106.53 20.6748 106.503 20.6866C106.451 20.7089 106.436 20.7 106.491 20.7V18.7ZM105.044 19.3933C104.868 19.6426 104.724 19.926 104.603 20.2286L106.46 20.9714C106.539 20.774 106.614 20.6374 106.678 20.5467L105.044 19.3933ZM104.6 20.2365L103.64 22.6965L105.503 23.4235L106.463 20.9635L104.6 20.2365ZM103.627 22.7296C103.543 22.9722 103.472 23.2269 103.414 23.4926L105.368 23.9174C105.411 23.7231 105.46 23.5478 105.515 23.3903L103.627 22.7296ZM103.406 23.5337C103.355 23.8282 103.331 24.1363 103.331 24.455H105.331C105.331 24.2337 105.348 24.0418 105.376 23.8763L103.406 23.5337ZM111.181 27.65V25.07H109.181V27.65H111.181ZM110.181 24.07H104.331V26.07H110.181V24.07ZM103.331 25.07V27.65H105.331V25.07H103.331ZM104.331 26.65H104.181V28.65H104.331V26.65ZM105.181 27.65V24.455H103.181V27.65H105.181ZM105.181 24.455C105.181 24.2215 105.198 24.0249 105.226 23.8613L103.256 23.5187C103.204 23.8151 103.181 24.1285 103.181 24.455H105.181ZM105.22 23.894C105.261 23.6986 105.313 23.5148 105.376 23.3417L103.496 22.6583C103.399 22.9252 103.322 23.2014 103.262 23.486L105.22 23.894ZM105.368 23.3635L106.328 20.9035L104.465 20.1765L103.505 22.6365L105.368 23.3635ZM106.327 20.9057C106.413 20.6856 106.5 20.532 106.576 20.4282L104.966 19.2418C104.763 19.518 104.599 19.8344 104.465 20.1743L106.327 20.9057ZM106.576 20.4282C106.553 20.4598 106.525 20.4878 106.495 20.5103C106.465 20.5325 106.44 20.5449 106.424 20.5511C106.396 20.5621 106.409 20.55 106.491 20.55V18.55C105.981 18.55 105.368 18.6966 104.966 19.2418L106.576 20.4282ZM106.491 20.55H107.961V18.55H106.491V20.55ZM107.961 20.55C108.036 20.55 108.038 20.5614 107.999 20.5455C107.978 20.5368 107.948 20.5209 107.914 20.4944C107.88 20.4674 107.85 20.4349 107.826 20.3997L109.477 19.2703C109.088 18.7019 108.468 18.55 107.961 18.55V20.55ZM107.846 20.4282C107.925 20.5357 108.019 20.6993 108.117 20.9374L109.965 20.1726C109.824 19.8307 109.657 19.5143 109.456 19.2418L107.846 20.4282ZM108.12 20.9448L109.155 23.3898L110.997 22.6102L109.962 20.1652L108.12 20.9448ZM109.136 23.3417C109.195 23.502 109.24 23.6724 109.27 23.8544L111.243 23.5256C111.193 23.2276 111.118 22.938 111.016 22.6583L109.136 23.3417ZM109.279 23.9024C109.311 24.051 109.331 24.2334 109.331 24.455H111.331C111.331 24.1166 111.301 23.789 111.233 23.4776L109.279 23.9024ZM109.331 24.455V27.65H111.331V24.455H109.331ZM110.331 26.65H110.181V28.65H110.331V26.65ZM117.727 25.085V24.085H116.727V25.085H117.727ZM117.727 27.65V28.65H118.727V27.65H117.727ZM117.577 27.65H116.577V28.65H117.577V27.65ZM117.577 25.085H118.577V24.085H117.577V25.085ZM116.827 24.935L116.32 25.7969L116.331 25.8032L116.342 25.8092L116.827 24.935ZM116.332 24.455L115.52 25.0385L115.524 25.0432L116.332 24.455ZM114.877 22.43L115.69 21.8465L115.684 21.8386L114.877 22.43ZM114.682 21.905L113.687 22.0045L113.687 22.0045L114.682 21.905ZM114.652 19.55V18.55H113.652V19.55H114.652ZM114.802 19.55H115.802V18.55H114.802V19.55ZM114.832 21.875L113.838 21.9797L113.839 21.9854L114.832 21.875ZM115.012 22.37L114.18 22.9247L114.19 22.9393L114.2 22.9535L115.012 22.37ZM116.467 24.395L117.306 23.85L117.293 23.8304L117.28 23.8115L116.467 24.395ZM116.917 24.815L117.343 23.9102L117.343 23.9102L116.917 24.815ZM118.342 24.815L118.813 25.6974L118.823 25.6921L118.833 25.6866L118.342 24.815ZM118.807 24.395L119.592 25.0146L119.602 25.0026L119.611 24.9902L118.807 24.395ZM120.307 22.37L119.515 21.7603L119.509 21.7675L119.504 21.7748L120.307 22.37ZM120.487 21.89L121.482 21.9947L121.482 21.9895L120.487 21.89ZM120.517 19.55V18.55H119.517V19.55H120.517ZM120.667 19.55H121.667V18.55H120.667V19.55ZM120.637 21.905L119.642 21.8055L119.64 21.8289L119.639 21.8524L120.637 21.905ZM120.442 22.43L119.642 21.83L119.639 21.8348L120.442 22.43ZM118.942 24.455L118.139 23.8597L118.134 23.8668L118.942 24.455ZM118.432 24.935L117.947 24.0608L117.936 24.0668L117.925 24.0731L118.432 24.935ZM117.832 24.085H117.727V26.085H117.832V24.085ZM116.727 25.085V27.65H118.727V25.085H116.727ZM117.727 26.65H117.577V28.65H117.727V26.65ZM118.577 27.65V25.085H116.577V27.65H118.577ZM117.577 24.085H117.427V26.085H117.577V24.085ZM117.427 24.085C117.365 24.085 117.334 24.0727 117.313 24.0608L116.342 25.8092C116.68 25.9973 117.049 26.085 117.427 26.085V24.085ZM117.334 24.0731C117.319 24.0637 117.249 24.0153 117.141 23.8668L115.524 25.0432C115.736 25.3347 115.996 25.6063 116.32 25.7969L117.334 24.0731ZM117.145 23.8715L115.69 21.8465L114.065 23.0135L115.52 25.0385L117.145 23.8715ZM115.684 21.8386C115.683 21.8382 115.684 21.8383 115.684 21.8387C115.684 21.8392 115.684 21.8391 115.684 21.8381C115.683 21.8365 115.68 21.827 115.677 21.8055L113.687 22.0045C113.724 22.3675 113.847 22.7157 114.071 23.0214L115.684 21.8386ZM115.677 21.8055C115.661 21.6415 115.652 21.4648 115.652 21.275H113.652C113.652 21.5252 113.664 21.7685 113.687 22.0045L115.677 21.8055ZM115.652 21.275V19.55H113.652V21.275H115.652ZM114.652 20.55H114.802V18.55H114.652V20.55ZM113.802 19.55V21.275H115.802V19.55H113.802ZM113.802 21.275C113.802 21.5166 113.814 21.7517 113.838 21.9797L115.827 21.7703C115.811 21.6183 115.802 21.4534 115.802 21.275H113.802ZM113.839 21.9854C113.876 22.3236 113.991 22.641 114.18 22.9247L115.844 21.8153C115.834 21.799 115.829 21.7864 115.826 21.7646L113.839 21.9854ZM114.2 22.9535L115.655 24.9785L117.28 23.8115L115.825 21.7865L114.2 22.9535ZM115.629 24.94C115.833 25.2544 116.113 25.5418 116.492 25.7198L117.343 23.9102C117.36 23.9183 117.366 23.9245 117.36 23.9189C117.353 23.9125 117.334 23.8926 117.306 23.85L115.629 24.94ZM116.492 25.7198C116.781 25.8558 117.095 25.935 117.427 25.935V23.935C117.42 23.935 117.394 23.9342 117.343 23.9102L116.492 25.7198ZM117.427 25.935H117.832V23.935H117.427V25.935ZM117.832 25.935C118.167 25.935 118.502 25.8633 118.813 25.6974L117.872 23.9326C117.875 23.9309 117.877 23.9308 117.873 23.9316C117.87 23.9324 117.857 23.935 117.832 23.935V25.935ZM118.833 25.6866C119.136 25.5158 119.386 25.2761 119.592 25.0146L118.023 23.7754C117.929 23.8939 117.869 23.9342 117.852 23.9434L118.833 25.6866ZM119.611 24.9902L121.111 22.9652L119.504 21.7748L118.004 23.7998L119.611 24.9902ZM121.1 22.9797C121.33 22.6805 121.446 22.3377 121.482 21.9947L119.493 21.7853C119.491 21.8058 119.488 21.8094 119.491 21.8014C119.493 21.7974 119.495 21.7913 119.499 21.7838C119.504 21.7762 119.509 21.7682 119.515 21.7603L121.1 22.9797ZM121.482 21.9895C121.506 21.755 121.517 21.5168 121.517 21.275H119.517C119.517 21.4532 119.509 21.625 119.492 21.7905L121.482 21.9895ZM121.517 21.275V19.55H119.517V21.275H121.517ZM120.517 20.55H120.667V18.55H120.517V20.55ZM119.667 19.55V21.275H121.667V19.55H119.667ZM119.667 21.275C119.667 21.4648 119.659 21.6415 119.642 21.8055L121.632 22.0045C121.656 21.7685 121.667 21.5252 121.667 21.275H119.667ZM119.639 21.8524C119.639 21.851 119.639 21.8478 119.64 21.8434C119.641 21.839 119.642 21.8345 119.644 21.8306C119.645 21.8266 119.646 21.8243 119.647 21.8238C119.647 21.8233 119.646 21.8254 119.642 21.83L121.242 23.03C121.475 22.7198 121.615 22.3561 121.636 21.9576L119.639 21.8524ZM119.639 21.8348L118.139 23.8598L119.746 25.0502L121.246 23.0252L119.639 21.8348ZM118.134 23.8668C118.033 24.0052 117.966 24.0504 117.947 24.0608L118.918 25.8092C119.259 25.6196 119.532 25.3448 119.751 25.0432L118.134 23.8668ZM117.925 24.0731C117.925 24.0731 117.925 24.0731 117.925 24.0731C117.925 24.0731 117.925 24.0732 117.925 24.0732C117.925 24.0733 117.924 24.0736 117.924 24.0739C117.922 24.0745 117.919 24.0758 117.912 24.0774C117.9 24.0804 117.875 24.085 117.832 24.085V26.085C118.211 26.085 118.592 26.0014 118.939 25.7969L117.925 24.0731ZM130.194 19.55H131.194V18.55H130.194V19.55ZM130.194 19.7V20.7H131.194V19.7H130.194ZM125.694 22.88L126.401 22.1729L126.401 22.1729L125.694 22.88ZM126.249 23.15L126.448 22.1701L126.434 22.1673L126.42 22.1648L126.249 23.15ZM129.414 23.795L129.214 24.7749L129.217 24.7756L129.414 23.795ZM130.149 24.185L129.424 24.8737L129.432 24.883L129.441 24.8921L130.149 24.185ZM129.999 27.23L130.681 27.9611L130.687 27.9551L130.694 27.949L129.999 27.23ZM125.049 27.65H124.049V28.65H125.049V27.65ZM125.049 27.5V26.5H124.049V27.5H125.049ZM129.879 27.125L130.558 27.8588L130.559 27.8578L129.879 27.125ZM130.044 24.305L129.296 24.9694L129.316 24.9913L129.336 25.0121L130.044 24.305ZM129.384 23.945L129.593 22.9671L129.583 22.9651L129.384 23.945ZM126.219 23.3L126.418 22.3201L126.407 22.318L126.219 23.3ZM125.574 23L124.866 23.7071L124.889 23.7292L124.912 23.7498L125.574 23ZM125.754 19.94L126.42 20.6859L126.427 20.6794L126.434 20.6728L125.754 19.94ZM129.194 19.55V19.7H131.194V19.55H129.194ZM130.194 18.7H126.864V20.7H130.194V18.7ZM126.864 18.7C126.255 18.7 125.657 18.8715 125.182 19.3091L126.536 20.7809C126.56 20.7585 126.632 20.7 126.864 20.7V18.7ZM125.182 19.3091C124.719 19.7348 124.484 20.2949 124.484 20.915H126.484C126.484 20.8613 126.493 20.8379 126.496 20.8308C126.498 20.8244 126.506 20.8081 126.536 20.7809L125.182 19.3091ZM124.484 20.915V22.145H126.484V20.915H124.484ZM124.484 22.145C124.484 22.5727 124.559 23.1592 124.986 23.5871L126.401 22.1729C126.481 22.2527 126.499 22.3214 126.498 22.3165C126.497 22.315 126.493 22.301 126.49 22.271C126.486 22.2412 126.484 22.1998 126.484 22.145H124.484ZM124.986 23.5871C125.297 23.8975 125.682 24.0664 126.077 24.1352L126.42 22.1648C126.385 22.1587 126.373 22.1522 126.375 22.1533C126.376 22.1538 126.379 22.1557 126.385 22.1594C126.39 22.1631 126.395 22.1677 126.401 22.1729L124.986 23.5871ZM126.049 24.1299L129.214 24.7749L129.613 22.8151L126.448 22.1701L126.049 24.1299ZM129.217 24.7756C129.338 24.7998 129.391 24.8394 129.424 24.8737L130.874 23.4963C130.526 23.1306 130.089 22.9102 129.61 22.8144L129.217 24.7756ZM129.441 24.8921C129.387 24.8372 129.392 24.8072 129.41 24.8726C129.428 24.9389 129.449 25.063 129.449 25.265H131.449C131.449 24.6809 131.349 23.9711 130.856 23.4779L129.441 24.8921ZM129.449 25.265V26.135H131.449V25.265H129.449ZM129.449 26.135C129.449 26.3204 129.397 26.4206 129.304 26.511L130.694 27.949C131.2 27.4594 131.449 26.8296 131.449 26.135H129.449ZM129.316 26.4989C129.244 26.5667 129.105 26.65 128.784 26.65V28.65C129.482 28.65 130.153 28.4533 130.681 27.9611L129.316 26.4989ZM128.784 26.65H125.049V28.65H128.784V26.65ZM126.049 27.65V27.5H124.049V27.65H126.049ZM125.049 28.5H128.784V26.5H125.049V28.5ZM128.784 28.5C129.43 28.5 130.06 28.3199 130.558 27.8588L129.199 26.3912C129.157 26.4301 129.057 26.5 128.784 26.5V28.5ZM130.559 27.8578C131.053 27.3988 131.299 26.7984 131.299 26.135H129.299C129.299 26.2716 129.264 26.3312 129.198 26.3922L130.559 27.8578ZM131.299 26.135V25.265H129.299V26.135H131.299ZM131.299 25.265C131.299 24.7521 131.222 24.069 130.751 23.5979L129.336 25.0121C129.258 24.9341 129.255 24.8781 129.268 24.9292C129.281 24.9786 129.299 25.0836 129.299 25.265H131.299ZM130.791 23.6406C130.464 23.2732 130.041 23.0631 129.593 22.9672L129.174 24.9228C129.233 24.9355 129.265 24.95 129.28 24.9579C129.293 24.965 129.296 24.9689 129.296 24.9694L130.791 23.6406ZM129.583 22.9651L126.418 22.3201L126.019 24.2799L129.184 24.9249L129.583 22.9651ZM126.407 22.318C126.293 22.296 126.25 22.2633 126.235 22.2502L124.912 23.7498C125.237 24.0367 125.624 24.204 126.03 24.282L126.407 22.318ZM126.281 22.2929C126.354 22.3659 126.364 22.4228 126.356 22.396C126.349 22.3679 126.334 22.291 126.334 22.145H124.334C124.334 22.6242 124.415 23.2558 124.866 23.7071L126.281 22.2929ZM126.334 22.145V20.915H124.334V22.145H126.334ZM126.334 20.915C126.334 20.7788 126.367 20.7326 126.42 20.6859L125.088 19.1941C124.58 19.6474 124.334 20.2512 124.334 20.915H126.334ZM126.434 20.6728C126.493 20.6183 126.602 20.55 126.864 20.55V18.55C126.206 18.55 125.574 18.7417 125.073 19.2072L126.434 20.6728ZM126.864 20.55H130.194V18.55H126.864V20.55Z" fill="#3D4147"/>
<g filter="url(#filter1_d_100_597)">
<line y1="-0.5" x2="25.5595" y2="-0.5" transform="matrix(0.794648 -0.607071 0.665522 0.746378 77.8581 16.5609)" stroke="#3D4147"/>
<line y1="-0.5" x2="24.8006" y2="-0.5" transform="matrix(0.775209 -0.631705 0.689175 0.724595 46.2635 16.7112)" stroke="#3D4147"/>
<line opacity="0.15" y1="-0.5" x2="19.9166" y2="-0.5" transform="matrix(0.791003 0.611813 -0.670102 0.742269 65.4459 1.04446)" stroke="#4171BA"/>
<line opacity="0.15" y1="-0.5" x2="19.9433" y2="-0.5" transform="matrix(0.803653 0.595099 -0.653903 0.756578 98.1689 1.04443)" stroke="#4171BA"/>
</g>
</g>
<defs>
<filter id="filter0_d_100_597" x="-4" y="0" width="175" height="55" filterUnits="userSpaceOnUse" color-interpolation-filters="sRGB">
<feFlood flood-opacity="0" result="BackgroundImageFix"/>
<feColorMatrix in="SourceAlpha" type="matrix" values="0 0 0 0 0 0 0 0 0 0 0 0 0 0 0 0 0 0 127 0" result="hardAlpha"/>
<feOffset dy="4"/>
<feGaussianBlur stdDeviation="2"/>
<feColorMatrix type="matrix" values="0 0 0 0 0 0 0 0 0 0 0 0 0 0 0 0 0 0 0.25 0"/>
<feBlend mode="normal" in2="BackgroundImageFix" result="effect1_dropShadow_100_597"/>
<feBlend mode="normal" in="SourceGraphic" in2="effect1_dropShadow_100_597" result="shape"/>
</filter>
<filter id="filter1_d_100_597" x="41.5743" y="0.287842" width="77.276" height="24.4233" filterUnits="userSpaceOnUse" color-interpolation-filters="sRGB">
<feFlood flood-opacity="0" result="BackgroundImageFix"/>
<feColorMatrix in="SourceAlpha" type="matrix" values="0 0 0 0 0 0 0 0 0 0 0 0 0 0 0 0 0 0 127 0" result="hardAlpha"/>
<feOffset dy="4"/>
<feGaussianBlur stdDeviation="2"/>
<feComposite in2="hardAlpha" operator="out"/>
<feColorMatrix type="matrix" values="0 0 0 0 0.525 0 0 0 0 0.492187 0 0 0 0 0.492187 0 0 0 1 0"/>
<feBlend mode="normal" in2="BackgroundImageFix" result="effect1_dropShadow_100_597"/>
<feBlend mode="normal" in="SourceGraphic" in2="effect1_dropShadow_100_597" result="shape"/>
</filter>
</defs>
</svg>
