<svg width="24" height="24" viewBox="0 0 24 24" fill="none" xmlns="http://www.w3.org/2000/svg">
<path d="M9.13194 2.34246e-05C14.1754 2.34246e-05 18.2639 4.08855 18.2639 9.13197C18.2639 14.1754 14.1754 18.264 9.13199 18.264C4.0885 18.264 0 14.1754 0 9.13201C0.00599999 4.09096 4.09094 0.00599999 9.1314 0H9.13199L9.13194 2.34246e-05ZM9.13194 16.1501C13.008 16.1501 16.1501 13.008 16.1501 9.13197C16.1501 5.25595 13.008 2.11392 9.13194 2.11392C5.25597 2.11392 2.11387 5.25602 2.11387 9.13204C2.11868 13.0061 5.25792 16.1453 9.13152 16.1501H9.13199L9.13194 16.1501ZM22.5023 24L13.9337 15.4282L15.4282 13.9337L24 22.5023L22.5023 24Z" fill="#3D4147"/>
</svg>
