<svg width="518" height="70" viewBox="0 0 518 70" fill="none" xmlns="http://www.w3.org/2000/svg">
<path d="M297.443 54.2H296.633C295.223 54.2 294.253 53.915 293.723 53.345C293.203 52.775 292.943 52.04 292.943 51.14V44.075C292.943 43.165 293.203 42.425 293.723 41.855C294.253 41.285 295.223 41 296.633 41H297.443C297.633 41 297.768 41.045 297.848 41.135C297.938 41.215 297.983 41.35 297.983 41.54V43.355C297.983 43.545 297.938 43.685 297.848 43.775C297.768 43.855 297.633 43.895 297.443 43.895H296.978C296.738 43.895 296.573 43.955 296.483 44.075C296.403 44.195 296.363 44.385 296.363 44.645V50.585C296.363 50.845 296.403 51.035 296.483 51.155C296.573 51.275 296.738 51.335 296.978 51.335H297.443C297.633 51.335 297.768 51.38 297.848 51.47C297.938 51.55 297.983 51.685 297.983 51.875V53.66C297.983 53.85 297.938 53.985 297.848 54.065C297.768 54.155 297.633 54.2 297.443 54.2ZM306.544 53H299.914C299.724 53 299.584 52.96 299.494 52.88C299.414 52.79 299.374 52.65 299.374 52.46V50.645C299.374 50.455 299.414 50.32 299.494 50.24C299.584 50.15 299.724 50.105 299.914 50.105H301.594V45.095H300.214C300.024 45.095 299.884 45.055 299.794 44.975C299.714 44.885 299.674 44.745 299.674 44.555V42.74C299.674 42.55 299.714 42.415 299.794 42.335C299.884 42.245 300.024 42.2 300.214 42.2H304.564C304.754 42.2 304.889 42.245 304.969 42.335C305.059 42.415 305.104 42.55 305.104 42.74V50.105H306.544C306.734 50.105 306.869 50.15 306.949 50.24C307.039 50.32 307.084 50.455 307.084 50.645V52.46C307.084 52.65 307.039 52.79 306.949 52.88C306.869 52.96 306.734 53 306.544 53ZM313.798 46.13V45.245C313.798 45.085 313.738 44.955 313.618 44.855C313.498 44.745 313.223 44.69 312.793 44.69C312.343 44.69 312.058 44.745 311.938 44.855C311.818 44.955 311.758 45.085 311.758 45.245V46.13C311.758 46.28 311.818 46.41 311.938 46.52C312.058 46.62 312.343 46.67 312.793 46.67C313.223 46.67 313.498 46.62 313.618 46.52C313.738 46.41 313.798 46.28 313.798 46.13ZM313.798 47.18L315.373 46.67C315.373 47.04 315.323 47.38 315.223 47.69C315.133 47.99 314.958 48.25 314.698 48.47C314.448 48.68 314.093 48.845 313.633 48.965C313.183 49.085 312.603 49.145 311.893 49.145C310.543 49.145 309.618 48.92 309.118 48.47C308.618 48.01 308.368 47.335 308.368 46.445V45.005C308.368 44.545 308.428 44.13 308.548 43.76C308.678 43.39 308.903 43.075 309.223 42.815C309.553 42.545 309.998 42.34 310.558 42.2C311.118 42.05 311.828 41.975 312.688 41.975C313.608 41.975 314.358 42.05 314.938 42.2C315.528 42.34 315.988 42.545 316.318 42.815C316.648 43.075 316.873 43.39 316.993 43.76C317.123 44.13 317.188 44.545 317.188 45.005V49.925C317.188 50.835 316.923 51.575 316.393 52.145C315.873 52.715 314.908 53 313.498 53H310.048C309.858 53 309.718 52.96 309.628 52.88C309.548 52.79 309.508 52.65 309.508 52.46V50.69C309.508 50.5 309.548 50.365 309.628 50.285C309.718 50.195 309.858 50.15 310.048 50.15H312.853C313.223 50.15 313.473 50.095 313.603 49.985C313.733 49.865 313.798 49.62 313.798 49.25V47.18ZM324.198 53H319.428C319.238 53 319.098 52.96 319.008 52.88C318.928 52.79 318.888 52.65 318.888 52.46V50.705C318.888 50.515 318.928 50.38 319.008 50.3C319.098 50.21 319.238 50.165 319.428 50.165H323.298C323.418 50.165 323.513 50.14 323.583 50.09C323.663 50.03 323.703 49.94 323.703 49.82V49.235C323.703 49.115 323.663 49.03 323.583 48.98C323.513 48.92 323.418 48.89 323.298 48.89H319.578C319.388 48.89 319.248 48.85 319.158 48.77C319.078 48.68 319.038 48.54 319.038 48.35V42.74C319.038 42.55 319.078 42.415 319.158 42.335C319.248 42.245 319.388 42.2 319.578 42.2H326.043C326.233 42.2 326.368 42.245 326.448 42.335C326.538 42.415 326.583 42.55 326.583 42.74V44.525C326.583 44.715 326.538 44.855 326.448 44.945C326.368 45.025 326.233 45.065 326.043 45.065H322.443V46.04H324.498C325.308 46.04 325.948 46.24 326.418 46.64C326.888 47.04 327.123 47.635 327.123 48.425V50.51C327.123 51.27 326.858 51.875 326.328 52.325C325.808 52.775 325.098 53 324.198 53ZM339.891 53H336.231C334.981 53 334.051 52.75 333.441 52.25C332.841 51.75 332.541 50.98 332.541 49.94V45.275C332.541 44.235 332.841 43.465 333.441 42.965C334.051 42.455 334.981 42.2 336.231 42.2H339.891C340.081 42.2 340.216 42.245 340.296 42.335C340.386 42.415 340.431 42.55 340.431 42.74V44.555C340.431 44.745 340.386 44.885 340.296 44.975C340.216 45.055 340.081 45.095 339.891 45.095H336.876C336.566 45.095 336.336 45.16 336.186 45.29C336.036 45.41 335.961 45.595 335.961 45.845V49.415C335.961 49.665 336.036 49.85 336.186 49.97C336.336 50.08 336.566 50.135 336.876 50.135H339.891C340.081 50.135 340.216 50.18 340.296 50.27C340.386 50.35 340.431 50.485 340.431 50.675V52.46C340.431 52.65 340.386 52.79 340.296 52.88C340.216 52.96 340.081 53 339.891 53ZM351.32 50.165C351.32 50.625 351.25 51.045 351.11 51.425C350.98 51.795 350.74 52.115 350.39 52.385C350.05 52.645 349.58 52.85 348.98 53C348.38 53.15 347.615 53.225 346.685 53.225C345.755 53.225 344.99 53.15 344.39 53C343.79 52.85 343.315 52.645 342.965 52.385C342.625 52.115 342.385 51.795 342.245 51.425C342.115 51.045 342.05 50.625 342.05 50.165V42.74C342.05 42.55 342.09 42.415 342.17 42.335C342.26 42.245 342.4 42.2 342.59 42.2H344.945C345.135 42.2 345.27 42.245 345.35 42.335C345.44 42.415 345.485 42.55 345.485 42.74V49.58C345.485 49.78 345.56 49.95 345.71 50.09C345.86 50.22 346.195 50.285 346.715 50.285C347.245 50.285 347.585 50.22 347.735 50.09C347.885 49.95 347.96 49.78 347.96 49.58V42.74C347.96 42.55 348 42.415 348.08 42.335C348.17 42.245 348.31 42.2 348.5 42.2H350.78C350.97 42.2 351.105 42.245 351.185 42.335C351.275 42.415 351.32 42.55 351.32 42.74V50.165ZM358.327 53H353.587C353.397 53 353.257 52.96 353.167 52.88C353.087 52.79 353.047 52.65 353.047 52.46V50.705C353.047 50.515 353.087 50.38 353.167 50.3C353.257 50.21 353.397 50.165 353.587 50.165H357.622C357.752 50.165 357.847 50.125 357.907 50.045C357.977 49.955 358.012 49.85 358.012 49.73C358.012 49.56 357.977 49.435 357.907 49.355C357.847 49.275 357.752 49.23 357.622 49.22L355.372 48.905C354.672 48.805 354.107 48.575 353.677 48.215C353.257 47.855 353.047 47.255 353.047 46.415V44.84C353.047 43.99 353.322 43.34 353.872 42.89C354.422 42.43 355.182 42.2 356.152 42.2H360.352C360.542 42.2 360.677 42.245 360.757 42.335C360.847 42.415 360.892 42.55 360.892 42.74V44.525C360.892 44.715 360.847 44.855 360.757 44.945C360.677 45.025 360.542 45.065 360.352 45.065H356.857C356.727 45.065 356.627 45.11 356.557 45.2C356.487 45.28 356.452 45.385 356.452 45.515C356.452 45.645 356.487 45.755 356.557 45.845C356.627 45.935 356.727 45.985 356.857 45.995L359.092 46.295C359.792 46.395 360.357 46.625 360.787 46.985C361.217 47.345 361.432 47.945 361.432 48.785V50.36C361.432 51.21 361.152 51.865 360.592 52.325C360.042 52.775 359.287 53 358.327 53ZM368.026 53H365.596C365.406 53 365.266 52.96 365.176 52.88C365.096 52.79 365.056 52.65 365.056 52.46V45.095H362.851C362.661 45.095 362.521 45.055 362.431 44.975C362.351 44.885 362.311 44.745 362.311 44.555V42.74C362.311 42.55 362.351 42.415 362.431 42.335C362.521 42.245 362.661 42.2 362.851 42.2H370.771C370.961 42.2 371.096 42.245 371.176 42.335C371.266 42.415 371.311 42.55 371.311 42.74V44.555C371.311 44.745 371.266 44.885 371.176 44.975C371.096 45.055 370.961 45.095 370.771 45.095H368.566V52.46C368.566 52.65 368.521 52.79 368.431 52.88C368.351 52.96 368.216 53 368.026 53ZM381.847 50.165C381.847 50.625 381.777 51.045 381.637 51.425C381.507 51.795 381.267 52.115 380.917 52.385C380.577 52.645 380.102 52.85 379.492 53C378.892 53.15 378.127 53.225 377.197 53.225C376.267 53.225 375.497 53.15 374.887 53C374.277 52.85 373.797 52.645 373.447 52.385C373.107 52.115 372.867 51.795 372.727 51.425C372.597 51.045 372.532 50.625 372.532 50.165V45.05C372.532 44.59 372.597 44.175 372.727 43.805C372.867 43.425 373.107 43.1 373.447 42.83C373.797 42.56 374.277 42.35 374.887 42.2C375.497 42.05 376.267 41.975 377.197 41.975C378.127 41.975 378.892 42.05 379.492 42.2C380.102 42.35 380.577 42.56 380.917 42.83C381.267 43.1 381.507 43.425 381.637 43.805C381.777 44.175 381.847 44.59 381.847 45.05V50.165ZM375.937 49.625C375.937 49.825 376.012 49.995 376.162 50.135C376.312 50.265 376.657 50.33 377.197 50.33C377.737 50.33 378.082 50.265 378.232 50.135C378.382 49.995 378.457 49.825 378.457 49.625V45.59C378.457 45.4 378.382 45.24 378.232 45.11C378.082 44.97 377.737 44.9 377.197 44.9C376.657 44.9 376.312 44.97 376.162 45.11C376.012 45.24 375.937 45.4 375.937 45.59V49.625ZM386.531 53H384.296C384.106 53 383.966 52.96 383.876 52.88C383.796 52.79 383.756 52.65 383.756 52.46V42.74C383.756 42.55 383.796 42.415 383.876 42.335C383.966 42.245 384.106 42.2 384.296 42.2H386.711C386.871 42.2 387.001 42.235 387.101 42.305C387.211 42.375 387.311 42.49 387.401 42.65L388.751 45.095C388.801 45.185 388.841 45.25 388.871 45.29C388.911 45.33 388.961 45.35 389.021 45.35H389.156C389.216 45.35 389.261 45.33 389.291 45.29C389.331 45.25 389.376 45.185 389.426 45.095L390.761 42.65C390.851 42.49 390.946 42.375 391.046 42.305C391.156 42.235 391.291 42.2 391.451 42.2H393.881C394.071 42.2 394.206 42.245 394.286 42.335C394.376 42.415 394.421 42.55 394.421 42.74V52.46C394.421 52.65 394.376 52.79 394.286 52.88C394.206 52.96 394.071 53 393.881 53H391.571C391.381 53 391.241 52.96 391.151 52.88C391.071 52.79 391.031 52.65 391.031 52.46V47.18L390.146 48.815C390.056 48.985 389.946 49.11 389.816 49.19C389.696 49.26 389.541 49.295 389.351 49.295H388.751C388.561 49.295 388.401 49.26 388.271 49.19C388.151 49.11 388.046 48.985 387.956 48.815L387.071 47.18V52.46C387.071 52.65 387.026 52.79 386.936 52.88C386.856 52.96 386.721 53 386.531 53ZM403.986 53H397.026C396.836 53 396.696 52.96 396.606 52.88C396.526 52.79 396.486 52.65 396.486 52.46V42.74C396.486 42.55 396.526 42.415 396.606 42.335C396.696 42.245 396.836 42.2 397.026 42.2H403.986C404.176 42.2 404.311 42.245 404.391 42.335C404.481 42.415 404.526 42.55 404.526 42.74V44.495C404.526 44.685 404.481 44.825 404.391 44.915C404.311 44.995 404.176 45.035 403.986 45.035H399.846V46.19H402.771C402.961 46.19 403.096 46.235 403.176 46.325C403.266 46.405 403.311 46.54 403.311 46.73V48.335C403.311 48.525 403.266 48.665 403.176 48.755C403.096 48.835 402.961 48.875 402.771 48.875H399.846V50.165H403.986C404.176 50.165 404.311 50.21 404.391 50.3C404.481 50.38 404.526 50.515 404.526 50.705V52.46C404.526 52.65 404.481 52.79 404.391 52.88C404.311 52.96 404.176 53 403.986 53ZM409.69 44.9V46.82H410.815C411.075 46.82 411.25 46.755 411.34 46.625C411.43 46.485 411.475 46.315 411.475 46.115V45.605C411.475 45.405 411.43 45.24 411.34 45.11C411.25 44.97 411.075 44.9 410.815 44.9H409.69ZM409.15 53H406.84C406.65 53 406.51 52.96 406.42 52.88C406.34 52.79 406.3 52.65 406.3 52.46V42.74C406.3 42.55 406.34 42.415 406.42 42.335C406.51 42.245 406.65 42.2 406.84 42.2H411.835C412.955 42.2 413.725 42.435 414.145 42.905C414.575 43.365 414.79 43.965 414.79 44.705V45.395C414.79 45.815 414.725 46.175 414.595 46.475C414.475 46.765 414.26 46.975 413.95 47.105C414.49 47.165 414.925 47.385 415.255 47.765C415.595 48.145 415.765 48.65 415.765 49.28V52.46C415.765 52.65 415.72 52.79 415.63 52.88C415.55 52.96 415.415 53 415.225 53H412.9C412.71 53 412.57 52.96 412.48 52.88C412.4 52.79 412.36 52.65 412.36 52.46V50.165C412.36 49.945 412.315 49.785 412.225 49.685C412.145 49.575 412 49.52 411.79 49.52H409.69V52.46C409.69 52.65 409.645 52.79 409.555 52.88C409.475 52.96 409.34 53 409.15 53ZM424.734 44.9V46.82H425.859C426.119 46.82 426.294 46.755 426.384 46.625C426.474 46.485 426.519 46.315 426.519 46.115V45.605C426.519 45.405 426.474 45.24 426.384 45.11C426.294 44.97 426.119 44.9 425.859 44.9H424.734ZM424.194 53H421.884C421.694 53 421.554 52.96 421.464 52.88C421.384 52.79 421.344 52.65 421.344 52.46V42.74C421.344 42.55 421.384 42.415 421.464 42.335C421.554 42.245 421.694 42.2 421.884 42.2H426.879C427.999 42.2 428.769 42.435 429.189 42.905C429.619 43.365 429.834 43.965 429.834 44.705V45.395C429.834 45.815 429.769 46.175 429.639 46.475C429.519 46.765 429.304 46.975 428.994 47.105C429.534 47.165 429.969 47.385 430.299 47.765C430.639 48.145 430.809 48.65 430.809 49.28V52.46C430.809 52.65 430.764 52.79 430.674 52.88C430.594 52.96 430.459 53 430.269 53H427.944C427.754 53 427.614 52.96 427.524 52.88C427.444 52.79 427.404 52.65 427.404 52.46V50.165C427.404 49.945 427.359 49.785 427.269 49.685C427.189 49.575 427.044 49.52 426.834 49.52H424.734V52.46C424.734 52.65 424.689 52.79 424.599 52.88C424.519 52.96 424.384 53 424.194 53ZM439.992 53H433.032C432.842 53 432.702 52.96 432.612 52.88C432.532 52.79 432.492 52.65 432.492 52.46V42.74C432.492 42.55 432.532 42.415 432.612 42.335C432.702 42.245 432.842 42.2 433.032 42.2H439.992C440.182 42.2 440.317 42.245 440.397 42.335C440.487 42.415 440.532 42.55 440.532 42.74V44.495C440.532 44.685 440.487 44.825 440.397 44.915C440.317 44.995 440.182 45.035 439.992 45.035H435.852V46.19H438.777C438.967 46.19 439.102 46.235 439.182 46.325C439.272 46.405 439.317 46.54 439.317 46.73V48.335C439.317 48.525 439.272 48.665 439.182 48.755C439.102 48.835 438.967 48.875 438.777 48.875H435.852V50.165H439.992C440.182 50.165 440.317 50.21 440.397 50.3C440.487 50.38 440.532 50.515 440.532 50.705V52.46C440.532 52.65 440.487 52.79 440.397 52.88C440.317 52.96 440.182 53 439.992 53ZM448.696 53H444.796C444.606 53 444.446 52.965 444.316 52.895C444.196 52.825 444.101 52.695 444.031 52.505L442.561 48.83C442.471 48.61 442.396 48.42 442.336 48.26C442.276 48.09 442.226 47.93 442.186 47.78C442.146 47.63 442.116 47.475 442.096 47.315C442.086 47.145 442.081 46.94 442.081 46.7V42.74C442.081 42.55 442.121 42.415 442.201 42.335C442.291 42.245 442.431 42.2 442.621 42.2H445.006C445.196 42.2 445.341 42.245 445.441 42.335C445.541 42.415 445.591 42.55 445.591 42.74V46.88C445.591 46.98 445.601 47.08 445.621 47.18C445.641 47.28 445.671 47.385 445.711 47.495L446.416 49.595C446.446 49.695 446.481 49.765 446.521 49.805C446.561 49.835 446.621 49.85 446.701 49.85H446.866C446.946 49.85 447.006 49.835 447.046 49.805C447.086 49.765 447.121 49.695 447.151 49.595L447.856 47.48C447.896 47.37 447.926 47.265 447.946 47.165C447.966 47.065 447.976 46.965 447.976 46.865V42.74C447.976 42.55 448.016 42.415 448.096 42.335C448.186 42.245 448.326 42.2 448.516 42.2H450.871C451.061 42.2 451.196 42.245 451.276 42.335C451.366 42.415 451.411 42.55 451.411 42.74V46.7C451.411 46.94 451.401 47.145 451.381 47.315C451.371 47.475 451.346 47.63 451.306 47.78C451.266 47.93 451.216 48.09 451.156 48.26C451.096 48.42 451.021 48.61 450.931 48.83L449.461 52.505C449.391 52.695 449.291 52.825 449.161 52.895C449.041 52.965 448.886 53 448.696 53ZM453.563 53C453.373 53 453.233 52.96 453.143 52.88C453.063 52.79 453.023 52.65 453.023 52.46V50.675C453.023 50.485 453.063 50.35 453.143 50.27C453.233 50.18 453.373 50.135 453.563 50.135H455.048V45.095H453.563C453.373 45.095 453.233 45.055 453.143 44.975C453.063 44.885 453.023 44.745 453.023 44.555V42.74C453.023 42.55 453.063 42.415 453.143 42.335C453.233 42.245 453.373 42.2 453.563 42.2H459.953C460.143 42.2 460.278 42.245 460.358 42.335C460.448 42.415 460.493 42.55 460.493 42.74V44.555C460.493 44.745 460.448 44.885 460.358 44.975C460.278 45.055 460.143 45.095 459.953 45.095H458.498V50.135H459.953C460.143 50.135 460.278 50.18 460.358 50.27C460.448 50.35 460.493 50.485 460.493 50.675V52.46C460.493 52.65 460.448 52.79 460.358 52.88C460.278 52.96 460.143 53 459.953 53H453.563ZM469.845 53H462.885C462.695 53 462.555 52.96 462.465 52.88C462.385 52.79 462.345 52.65 462.345 52.46V42.74C462.345 42.55 462.385 42.415 462.465 42.335C462.555 42.245 462.695 42.2 462.885 42.2H469.845C470.035 42.2 470.17 42.245 470.25 42.335C470.34 42.415 470.385 42.55 470.385 42.74V44.495C470.385 44.685 470.34 44.825 470.25 44.915C470.17 44.995 470.035 45.035 469.845 45.035H465.705V46.19H468.63C468.82 46.19 468.955 46.235 469.035 46.325C469.125 46.405 469.17 46.54 469.17 46.73V48.335C469.17 48.525 469.125 48.665 469.035 48.755C468.955 48.835 468.82 48.875 468.63 48.875H465.705V50.165H469.845C470.035 50.165 470.17 50.21 470.25 50.3C470.34 50.38 470.385 50.515 470.385 50.705V52.46C470.385 52.65 470.34 52.79 470.25 52.88C470.17 52.96 470.035 53 469.845 53ZM479.915 42.2H482.15C482.34 42.2 482.475 42.245 482.555 42.335C482.645 42.415 482.69 42.55 482.69 42.74V48.56C482.69 48.88 482.675 49.18 482.645 49.46C482.625 49.73 482.55 50.05 482.42 50.42L481.67 52.46C481.62 52.61 481.545 52.74 481.445 52.85C481.355 52.95 481.23 53 481.07 53H479.075C478.915 53 478.77 52.965 478.64 52.895C478.51 52.825 478.425 52.71 478.385 52.55L477.695 50.105C477.665 50.005 477.625 49.94 477.575 49.91C477.535 49.87 477.485 49.85 477.425 49.85H477.29C477.23 49.85 477.175 49.87 477.125 49.91C477.085 49.94 477.05 50.005 477.02 50.105L476.315 52.55C476.275 52.7 476.2 52.815 476.09 52.895C475.98 52.965 475.845 53 475.685 53H473.705C473.545 53 473.405 52.95 473.285 52.85C473.175 52.75 473.095 52.62 473.045 52.46L472.295 50.39C472.165 50.02 472.085 49.7 472.055 49.43C472.035 49.15 472.025 48.85 472.025 48.53V42.74C472.025 42.55 472.065 42.415 472.145 42.335C472.235 42.245 472.375 42.2 472.565 42.2H474.875C475.065 42.2 475.2 42.245 475.28 42.335C475.37 42.415 475.415 42.55 475.415 42.74V48.26L476.285 46.37C476.365 46.2 476.47 46.08 476.6 46.01C476.73 45.94 476.89 45.905 477.08 45.905H477.71C477.9 45.905 478.06 45.94 478.19 46.01C478.32 46.08 478.425 46.2 478.505 46.37L479.375 48.26V42.74C479.375 42.55 479.415 42.415 479.495 42.335C479.585 42.245 479.725 42.2 479.915 42.2ZM489.635 53H484.895C484.705 53 484.565 52.96 484.475 52.88C484.395 52.79 484.355 52.65 484.355 52.46V50.705C484.355 50.515 484.395 50.38 484.475 50.3C484.565 50.21 484.705 50.165 484.895 50.165H488.93C489.06 50.165 489.155 50.125 489.215 50.045C489.285 49.955 489.32 49.85 489.32 49.73C489.32 49.56 489.285 49.435 489.215 49.355C489.155 49.275 489.06 49.23 488.93 49.22L486.68 48.905C485.98 48.805 485.415 48.575 484.985 48.215C484.565 47.855 484.355 47.255 484.355 46.415V44.84C484.355 43.99 484.63 43.34 485.18 42.89C485.73 42.43 486.49 42.2 487.46 42.2H491.66C491.85 42.2 491.985 42.245 492.065 42.335C492.155 42.415 492.2 42.55 492.2 42.74V44.525C492.2 44.715 492.155 44.855 492.065 44.945C491.985 45.025 491.85 45.065 491.66 45.065H488.165C488.035 45.065 487.935 45.11 487.865 45.2C487.795 45.28 487.76 45.385 487.76 45.515C487.76 45.645 487.795 45.755 487.865 45.845C487.935 45.935 488.035 45.985 488.165 45.995L490.4 46.295C491.1 46.395 491.665 46.625 492.095 46.985C492.525 47.345 492.74 47.945 492.74 48.785V50.36C492.74 51.21 492.46 51.865 491.9 52.325C491.35 52.775 490.595 53 489.635 53ZM495.371 54.2H494.561C494.371 54.2 494.231 54.155 494.141 54.065C494.061 53.985 494.021 53.85 494.021 53.66V51.875C494.021 51.685 494.061 51.55 494.141 51.47C494.231 51.38 494.371 51.335 494.561 51.335H495.026C495.266 51.335 495.426 51.275 495.506 51.155C495.596 51.035 495.641 50.845 495.641 50.585V44.645C495.641 44.385 495.596 44.195 495.506 44.075C495.426 43.955 495.266 43.895 495.026 43.895H494.561C494.371 43.895 494.231 43.855 494.141 43.775C494.061 43.685 494.021 43.545 494.021 43.355V41.54C494.021 41.35 494.061 41.215 494.141 41.135C494.231 41.045 494.371 41 494.561 41H495.371C496.781 41 497.746 41.285 498.266 41.855C498.796 42.425 499.061 43.165 499.061 44.075V51.14C499.061 52.04 498.796 52.775 498.266 53.345C497.746 53.915 496.781 54.2 495.371 54.2Z" fill="#505961"/>
<path d="M26.5 14L32.4496 32.3111H51.703L36.1267 43.6279L42.0763 61.9389L26.5 50.6221L10.9237 61.9389L16.8733 43.6279L1.297 32.3111H20.5504L26.5 14Z" fill="#C69878"/>
<path d="M79.5 14L85.4496 32.3111H104.703L89.1267 43.6279L95.0763 61.9389L79.5 50.6221L63.9237 61.9389L69.8733 43.6279L54.297 32.3111H73.5504L79.5 14Z" fill="#C69878"/>
<path d="M132.5 14L138.45 32.3111H157.703L142.127 43.6279L148.076 61.9389L132.5 50.6221L116.924 61.9389L122.873 43.6279L107.297 32.3111H126.55L132.5 14Z" fill="#C69878"/>
<path d="M185.5 14L191.45 32.3111H210.703L195.127 43.6279L201.076 61.9389L185.5 50.6221L169.924 61.9389L175.873 43.6279L160.297 32.3111H179.55L185.5 14Z" fill="#C69878"/>
<path d="M238.5 14L244.45 32.3111H263.703L248.127 43.6279L254.076 61.9389L238.5 50.6221L222.924 61.9389L228.873 43.6279L213.297 32.3111H232.55L238.5 14Z" fill="#C69878"/>
<rect x="239" width="30" height="70" fill="white"/>
</svg>
