<svg width="31" height="26" viewBox="0 0 31 26" fill="none" xmlns="http://www.w3.org/2000/svg">
<path d="M6.1862 0H24.271C27.686 0.00397035 30.4533 2.84943 30.4571 6.36044V19.6392C30.4533 23.1506 27.6859 25.9961 24.2713 26H6.18617C2.77117 25.9961 0.00383094 23.1506 0 19.6396V6.36081C0.00386134 2.8494 2.7712 0.00393909 6.18581 0H6.1862ZM24.271 23.9123C26.5652 23.9099 28.4244 21.9982 28.4267 19.6395V6.36087C28.4244 4.00189 26.5652 2.09022 24.2712 2.08784H6.18624C3.89202 2.09022 2.03283 4.00189 2.03052 6.36062V19.6392C2.03283 21.9982 3.89202 23.9099 6.18599 23.9123H6.1862H24.271ZM9.04238 5.99338L22.6737 13L9.04241 20.0066L9.04238 5.99338ZM18.1295 13L11.0729 9.37284V16.6286L18.1295 13Z" fill="#B7977B"/>
</svg>
